<?xml version="1.0" encoding="UTF-8"?>
<svg version="1.1" xmlns="http://www.w3.org/2000/svg" width="80" height="80">
<path d="M0 0 C4.964284 2.01661329 7.37238131 4.0508313 9.91850281 8.77934265 C12.50776612 11.36860596 13.9455556 11.15332308 17.54350281 11.40434265 C18.54639343 11.47910828 19.54928406 11.5538739 20.58256531 11.63090515 C21.35342468 11.67988953 22.12428406 11.7288739 22.91850281 11.77934265 C22.91850281 14.08934265 22.91850281 16.39934265 22.91850281 18.77934265 C21.92850281 19.27434265 21.92850281 19.27434265 20.91850281 19.77934265 C29.82850281 28.68934265 29.82850281 28.68934265 38.91850281 37.77934265 C36.74810568 41.3966712 35.33620025 43.6127751 32.50444031 46.45219421 C31.83364441 47.12929443 31.16284851 47.80639465 30.47172546 48.50401306 C29.75291199 49.21877808 29.03409851 49.93354309 28.29350281 50.66996765 C27.55019714 51.41518677 26.80689148 52.16040588 26.0410614 52.9282074 C24.47336984 54.49725666 22.9031629 56.06379623 21.33061218 57.62797546 C18.92007019 60.02778225 16.52041155 62.43810147 14.12162781 64.84965515 C12.59622727 66.37373461 11.07020674 67.89719383 9.54350281 69.41996765 C8.82468933 70.14282959 8.10587585 70.86569153 7.36528015 71.61045837 C6.69448425 72.27494995 6.02368835 72.93944153 5.33256531 73.62406921 C4.74426941 74.21077393 4.15597351 74.79747864 3.54985046 75.40196228 C1.91850281 76.77934265 1.91850281 76.77934265 -1.08149719 77.77934265 C-2.07149719 76.78934265 -2.07149719 76.78934265 -3.08149719 75.77934265 C-5.6521103 75.13166472 -5.6521103 75.13166472 -8.08149719 74.77934265 C-8.08149719 73.45934265 -8.08149719 72.13934265 -8.08149719 70.77934265 C-9.40149719 70.77934265 -10.72149719 70.77934265 -12.08149719 70.77934265 C-12.08149719 69.45934265 -12.08149719 68.13934265 -12.08149719 66.77934265 C-13.40149719 66.77934265 -14.72149719 66.77934265 -16.08149719 66.77934265 C-16.39087219 65.35621765 -16.39087219 65.35621765 -16.70649719 63.90434265 C-17.78983053 60.48767598 -17.78983053 60.48767598 -21.20649719 59.40434265 C-22.15524719 59.19809265 -23.10399719 58.99184265 -24.08149719 58.77934265 C-24.08149719 57.45934265 -24.08149719 56.13934265 -24.08149719 54.77934265 C-25.40149719 54.77934265 -26.72149719 54.77934265 -28.08149719 54.77934265 C-28.08149719 53.45934265 -28.08149719 52.13934265 -28.08149719 50.77934265 C-29.40149719 50.77934265 -30.72149719 50.77934265 -32.08149719 50.77934265 C-32.08149719 49.45934265 -32.08149719 48.13934265 -32.08149719 46.77934265 C-33.40149719 46.77934265 -34.72149719 46.77934265 -36.08149719 46.77934265 C-36.76175356 44.78392397 -37.42640216 42.78316274 -38.08149719 40.77934265 C-38.33481308 40.13205704 -38.58812897 39.48477142 -38.84912109 38.81787109 C-39.08149719 36.77934265 -39.08149719 36.77934265 -37.82400513 34.88693237 C-37.17654831 34.23549759 -36.52909149 33.58406281 -35.86201477 32.91288757 C-34.77011589 31.79734749 -34.77011589 31.79734749 -33.65615845 30.65927124 C-32.85421555 29.86744949 -32.05227264 29.07562775 -31.22602844 28.2598114 C-30.00625557 27.03286308 -30.00625557 27.03286308 -28.76184082 25.78112793 C-27.03689549 24.05277571 -25.30560231 22.33073943 -23.56855774 20.61454773 C-20.90475484 17.97749228 -18.2686228 15.31488412 -15.63423157 12.64848328 C-13.95809808 10.97565374 -12.28041427 9.30437583 -10.60102844 7.6348114 C-9.8092067 6.8328685 -9.01738495 6.0309256 -8.2015686 5.2046814 C-7.45787521 4.47674881 -6.71418182 3.74881622 -5.94795227 2.99882507 C-5.29651749 2.35136826 -4.6450827 1.70391144 -3.97390747 1.03683472 C-2.08149719 -0.22065735 -2.08149719 -0.22065735 0 0 Z " fill="#786D42" transform="translate(40.08149719238281,1.2206573486328125)"/>
<path d="M0 0 C0.66 0.33 1.32 0.66 2 1 C1.835 2.093125 1.67 3.18625 1.5 4.3125 C0.93281816 7.87525873 0.93281816 7.87525873 1 11 C-0.49609375 12.71875 -0.49609375 12.71875 -2.4375 14.5 C-4.92139791 16.78819687 -5.90880131 17.72640392 -7 21 C-6.34 21 -5.68 21 -5 21 C-5.165 21.804375 -5.33 22.60875 -5.5 23.4375 C-6.03191839 25.7284443 -6.03191839 25.7284443 -6 27 C-5.34 25.35 -4.68 23.7 -4 22 C-3.34 22 -2.68 22 -2 22 C-2.33 21.67 -2.66 21.34 -3 21 C-3.296875 18.640625 -3.296875 18.640625 -3 16 C-1.390625 14.234375 -1.390625 14.234375 0.75 12.75 C1.44609375 12.24984375 2.1421875 11.7496875 2.859375 11.234375 C5 10 5 10 9 9 C7.02 11.64 5.04 14.28 3 17 C3.66 16.67 4.32 16.34 5 16 C7.77611079 25.63473745 7.77611079 25.63473745 6 29 C3.11252093 30.65541563 0.1259154 31.86961847 -3 33 C-3 34.65 -3 36.3 -3 38 C-2.814375 37.21625 -2.62875 36.4325 -2.4375 35.625 C-1.963125 34.75875 -1.48875 33.8925 -1 33 C0.155 32.690625 1.31 32.38125 2.5 32.0625 C3.655 31.711875 4.81 31.36125 6 31 C7.5 28.16666667 7.5 28.16666667 8 25 C8.20625 24.21625 8.4125 23.4325 8.625 22.625 C8.74875 22.08875 8.8725 21.5525 9 21 C9.99 21.99 10.98 22.98 12 24 C11.49396008 21.83125748 11.00016187 20.00032373 10 18 C9.45275929 12.30869663 10.40666293 9.43882815 14 5 C14.66 4.67 15.32 4.34 16 4 C15.96519531 4.67546875 15.93039063 5.3509375 15.89453125 6.046875 C15.85392578 7.38492187 15.85392578 7.38492187 15.8125 8.75 C15.77769531 9.63171875 15.74289063 10.5134375 15.70703125 11.421875 C16.05489325 14.48306056 17.09900966 15.63964438 19 18 C19.5 21.4375 19.5 21.4375 19 25 C16.5 27.6875 16.5 27.6875 14 30 C14 31.32 14 32.64 14 34 C14.66 34 15.32 34 16 34 C15.8453125 32.88625 15.8453125 32.88625 15.6875 31.75 C16 29 16 29 18.51953125 26.828125 C19.33808594 26.22484375 20.15664063 25.6215625 21 25 C20.31838565 36.63856502 20.31838565 36.63856502 17.0859375 39.9765625 C15.09263916 41.18099365 13.17593444 42.17516904 11 43 C11.33 41.35 11.66 39.7 12 38 C11.01 38.495 11.01 38.495 10 39 C10 38.01 10 37.02 10 36 C7.69 36.99 5.38 37.98 3 39 C3.33 39.99 3.66 40.98 4 42 C4.99 41.505 4.99 41.505 6 41 C5.34 40.34 4.68 39.68 4 39 C5.9375 38.4375 5.9375 38.4375 8 38 C9 39 9 39 9.125 41.5 C9 44 9 44 8 45 C6.04352418 45.1346199 4.08444135 45.23181712 2.125 45.3125 C-4.47274956 45.74991986 -9.95572912 47.39575503 -16 50 C-16 48.35 -16 46.7 -16 45 C-13.36 44.34 -10.72 43.68 -8 43 C-8 42.01 -8 41.02 -8 40 C-11.3 40.66 -14.6 41.32 -18 42 C-17.03801036 38.15204146 -16.27546203 37.00360988 -14 34 C-13.28837557 32.35202764 -12.60968047 30.68834592 -12 29 C-12.99 29.33 -13.98 29.66 -15 30 C-16.71567661 33.50294871 -16.71567661 33.50294871 -18 37 C-18.66 37 -19.32 37 -20 37 C-20 36.34 -20 35.68 -20 35 C-21.32 35 -22.64 35 -24 35 C-23.85834107 32.60385425 -23.71181159 30.20817103 -23.5625 27.8125 C-23.52318359 27.13896484 -23.48386719 26.46542969 -23.44335938 25.77148438 C-22.96603285 18.2444122 -22.96603285 18.2444122 -22 15 C-19.5 13.8125 -19.5 13.8125 -17 13 C-16.67 12.34 -16.34 11.68 -16 11 C-16.66666667 13.66666667 -17.33333333 16.33333333 -18 19 C-15.97253606 18.32325722 -15.97253606 18.32325722 -14 17 C-13.27053979 14.88364669 -13.27053979 14.88364669 -13.0625 12.5 C-12.63671875 10.06640625 -12.63671875 10.06640625 -12 8 C-9.375 6.4375 -9.375 6.4375 -7 6 C-7.66 8.64 -8.32 11.28 -9 14 C-8.01 14 -7.02 14 -6 14 C-6.103125 12.906875 -6.20625 11.81375 -6.3125 10.6875 C-6.209375 9.470625 -6.10625 8.25375 -6 7 C-3.5625 5.3125 -3.5625 5.3125 -1 4 C-0.12177688 1.91466367 -0.12177688 1.91466367 0 0 Z " fill="#F9F5BF" transform="translate(41,11)"/>
<path d="M0 0 C4.964284 2.01661329 7.37238131 4.0508313 9.91850281 8.77934265 C12.50776612 11.36860596 13.9455556 11.15332308 17.54350281 11.40434265 C18.54639343 11.47910828 19.54928406 11.5538739 20.58256531 11.63090515 C21.35342468 11.67988953 22.12428406 11.7288739 22.91850281 11.77934265 C22.91850281 14.08934265 22.91850281 16.39934265 22.91850281 18.77934265 C21.92850281 19.27434265 21.92850281 19.27434265 20.91850281 19.77934265 C29.82850281 28.68934265 29.82850281 28.68934265 38.91850281 37.77934265 C36.74810568 41.3966712 35.33620025 43.6127751 32.50444031 46.45219421 C31.83364441 47.12929443 31.16284851 47.80639465 30.47172546 48.50401306 C29.75291199 49.21877808 29.03409851 49.93354309 28.29350281 50.66996765 C27.55019714 51.41518677 26.80689148 52.16040588 26.0410614 52.9282074 C24.47336984 54.49725666 22.9031629 56.06379623 21.33061218 57.62797546 C18.92007019 60.02778225 16.52041155 62.43810147 14.12162781 64.84965515 C12.59622727 66.37373461 11.07020674 67.89719383 9.54350281 69.41996765 C8.82468933 70.14282959 8.10587585 70.86569153 7.36528015 71.61045837 C6.69448425 72.27494995 6.02368835 72.93944153 5.33256531 73.62406921 C4.74426941 74.21077393 4.15597351 74.79747864 3.54985046 75.40196228 C1.91850281 76.77934265 1.91850281 76.77934265 -1.08149719 77.77934265 C-2.07149719 76.78934265 -2.07149719 76.78934265 -3.08149719 75.77934265 C-5.6521103 75.13166472 -5.6521103 75.13166472 -8.08149719 74.77934265 C-8.08149719 73.45934265 -8.08149719 72.13934265 -8.08149719 70.77934265 C-9.40149719 70.77934265 -10.72149719 70.77934265 -12.08149719 70.77934265 C-12.08149719 69.45934265 -12.08149719 68.13934265 -12.08149719 66.77934265 C-13.40149719 66.77934265 -14.72149719 66.77934265 -16.08149719 66.77934265 C-16.39087219 65.35621765 -16.39087219 65.35621765 -16.70649719 63.90434265 C-17.78983053 60.48767598 -17.78983053 60.48767598 -21.20649719 59.40434265 C-22.15524719 59.19809265 -23.10399719 58.99184265 -24.08149719 58.77934265 C-24.08149719 57.45934265 -24.08149719 56.13934265 -24.08149719 54.77934265 C-25.40149719 54.77934265 -26.72149719 54.77934265 -28.08149719 54.77934265 C-28.08149719 53.45934265 -28.08149719 52.13934265 -28.08149719 50.77934265 C-29.40149719 50.77934265 -30.72149719 50.77934265 -32.08149719 50.77934265 C-32.08149719 49.45934265 -32.08149719 48.13934265 -32.08149719 46.77934265 C-33.40149719 46.77934265 -34.72149719 46.77934265 -36.08149719 46.77934265 C-36.76175356 44.78392397 -37.42640216 42.78316274 -38.08149719 40.77934265 C-38.33481308 40.13205704 -38.58812897 39.48477142 -38.84912109 38.81787109 C-39.08149719 36.77934265 -39.08149719 36.77934265 -37.82400513 34.88693237 C-37.17654831 34.23549759 -36.52909149 33.58406281 -35.86201477 32.91288757 C-34.77011589 31.79734749 -34.77011589 31.79734749 -33.65615845 30.65927124 C-32.85421555 29.86744949 -32.05227264 29.07562775 -31.22602844 28.2598114 C-30.00625557 27.03286308 -30.00625557 27.03286308 -28.76184082 25.78112793 C-27.03689549 24.05277571 -25.30560231 22.33073943 -23.56855774 20.61454773 C-20.90475484 17.97749228 -18.2686228 15.31488412 -15.63423157 12.64848328 C-13.95809808 10.97565374 -12.28041427 9.30437583 -10.60102844 7.6348114 C-9.8092067 6.8328685 -9.01738495 6.0309256 -8.2015686 5.2046814 C-7.45787521 4.47674881 -6.71418182 3.74881622 -5.94795227 2.99882507 C-5.29651749 2.35136826 -4.6450827 1.70391144 -3.97390747 1.03683472 C-2.08149719 -0.22065735 -2.08149719 -0.22065735 0 0 Z M-3.80895996 3.14604187 C-4.44183426 3.785578 -5.07470856 4.42511414 -5.72676086 5.08403015 C-6.44728134 5.80477722 -7.16780182 6.52552429 -7.91015625 7.26811218 C-9.06811455 8.44929626 -9.06811455 8.44929626 -10.24946594 9.65434265 C-11.04427872 10.45340027 -11.83909149 11.25245789 -12.6579895 12.07572937 C-15.20209573 14.63666659 -17.73559111 17.20782402 -20.26899719 19.77934265 C-21.98901289 21.51439939 -23.70970749 23.2487834 -25.43110657 24.98246765 C-29.65582048 29.24030954 -33.87186195 33.50659508 -38.08149719 37.77934265 C-34.95670952 41.4762683 -31.85124795 45.14314059 -28.39009094 48.5332489 C-27.75522766 49.16037781 -27.12036438 49.78750671 -26.46626282 50.43363953 C-25.82366516 51.06334656 -25.1810675 51.69305359 -24.51899719 52.34184265 C-17.32900159 59.38846845 -17.32900159 59.38846845 -14.37446594 63.01371765 C-12.35757046 65.4463616 -10.36647255 67.43962809 -7.95649719 69.46684265 C-5.56401238 71.49161093 -3.26769186 73.53204317 -1.08149719 75.77934265 C2.01029416 74.40318905 4.11489034 72.8277582 6.49369812 70.43119812 C7.17410156 69.75064362 7.854505 69.07008911 8.55552673 68.36891174 C9.27859009 67.63552582 10.00165344 66.90213989 10.74662781 66.14653015 C11.49563354 65.39469452 12.24463928 64.64285889 13.01634216 63.86824036 C15.40513301 61.46826364 17.78687178 59.06142256 20.16850281 56.65434265 C21.7878345 55.02497913 23.40762083 53.39606731 25.02787781 51.7676239 C28.99670785 47.7767546 32.95977179 43.7802285 36.91850281 39.77934265 C35.39120862 36.57149107 33.78818716 34.40265123 31.25834656 31.88871765 C30.54742859 31.17973328 29.83651062 30.4707489 29.10404968 29.74028015 C28.36219421 29.01067078 27.62033875 28.2810614 26.85600281 27.52934265 C26.11028015 26.78426453 25.3645575 26.0391864 24.59623718 25.27153015 C21.66261413 21.72027603 21.66261413 21.72027603 17.91850281 19.77934265 C17.91850281 21.42934265 17.91850281 23.07934265 17.91850281 24.77934265 C16.91850281 23.77934265 16.91850281 23.77934265 16.82084656 21.4941864 C16.83244812 20.57766296 16.84404968 19.66113953 16.85600281 18.71684265 C16.86502625 17.79774109 16.87404968 16.87863953 16.88334656 15.9316864 C16.89494812 15.22141296 16.90654968 14.51113953 16.91850281 13.77934265 C12.12342262 18.17174585 12.12342262 18.17174585 10.73100281 24.21684265 C10.62027764 27.88472364 10.62027764 27.88472364 12.91850281 30.77934265 C12.42350281 32.26434265 12.42350281 32.26434265 11.91850281 33.77934265 C10.92850281 32.78934265 9.93850281 31.79934265 8.91850281 30.77934265 C8.88112 31.40582703 8.84373718 32.0323114 8.80522156 32.67778015 C8.73947937 33.49504578 8.67373718 34.3123114 8.60600281 35.15434265 C8.51899109 36.37250671 8.51899109 36.37250671 8.43022156 37.61528015 C7.91850281 39.77934265 7.91850281 39.77934265 4.91850281 41.77934265 C3.37162781 42.21246765 3.37162781 42.21246765 1.79350281 42.65434265 C0.84475281 43.02559265 -0.10399719 43.39684265 -1.08149719 43.77934265 C-2.05026777 45.81177813 -2.05026777 45.81177813 -2.08149719 47.77934265 C-2.08149719 46.12934265 -2.08149719 44.47934265 -2.08149719 42.77934265 C-1.12436829 42.43322937 -1.12436829 42.43322937 -0.14790344 42.0801239 C4.82791803 40.3271047 4.82791803 40.3271047 8.10600281 36.52934265 C7.84877124 32.756613 6.96620211 29.41547551 5.91850281 25.77934265 C4.92850281 26.27434265 4.92850281 26.27434265 3.91850281 26.77934265 C5.89850281 24.13934265 7.87850281 21.49934265 9.91850281 18.77934265 C4.7130208 20.14268318 1.63244396 21.97697433 -2.08149719 25.77934265 C-2.58391041 28.44974795 -2.58391041 28.44974795 -2.08149719 30.77934265 C-2.08149719 33.57831741 -4.62291757 36.59147322 -6.08149719 38.77934265 C-5.75149719 38.20184265 -5.42149719 37.62434265 -5.08149719 37.02934265 C-3.81073822 34.58050403 -3.81073822 34.58050403 -4.08149719 30.77934265 C-4.74149719 30.77934265 -5.40149719 30.77934265 -6.08149719 30.77934265 C-3.92741057 26.83018384 -1.33201809 23.70082741 1.71147156 20.42778015 C3.21389446 18.71644471 3.21389446 18.71644471 2.91850281 15.77934265 C3.22474621 14.43952779 3.55301836 13.10422378 3.91850281 11.77934265 C4.66100281 12.62496765 5.40350281 13.47059265 6.16850281 14.34184265 C7.52975281 15.54840515 7.52975281 15.54840515 8.91850281 16.77934265 C11.19373369 16.73436424 11.19373369 16.73436424 12.91850281 15.77934265 C11.33357808 11.9468693 8.88733666 9.44847974 5.98100281 6.52934265 C4.66809265 5.19129578 4.66809265 5.19129578 3.32865906 3.82621765 C0.55869037 1.47376451 -0.82101271 0.78209791 -3.80895996 3.14604187 Z " fill="#222116" transform="translate(40.08149719238281,1.2206573486328125)"/>
<path d="M0 0 C1 2 1 2 0.875 5.875 C0.80633269 9.69976917 1.66217369 10.98030768 4 14 C4.5 17.4375 4.5 17.4375 4 21 C1.5 23.6875 1.5 23.6875 -1 26 C-1 27.32 -1 28.64 -1 30 C-0.34 30 0.32 30 1 30 C0.896875 29.2575 0.79375 28.515 0.6875 27.75 C1 25 1 25 3.51953125 22.828125 C4.33808594 22.22484375 5.15664063 21.6215625 6 21 C5.31838565 32.63856502 5.31838565 32.63856502 2.0859375 35.9765625 C0.09263916 37.18099365 -1.82406556 38.17516904 -4 39 C-3.67 37.35 -3.34 35.7 -3 34 C-3.99 34.495 -3.99 34.495 -5 35 C-5 34.01 -5 33.02 -5 32 C-7.31 32.99 -9.62 33.98 -12 35 C-11.67 35.99 -11.34 36.98 -11 38 C-10.01 37.505 -10.01 37.505 -9 37 C-9.66 36.34 -10.32 35.68 -11 35 C-9.0625 34.4375 -9.0625 34.4375 -7 34 C-6 35 -6 35 -5.875 37.5 C-6 40 -6 40 -7 41 C-8.95647582 41.1346199 -10.91555865 41.23181712 -12.875 41.3125 C-19.47274956 41.74991986 -24.95572912 43.39575503 -31 46 C-31 44.35 -31 42.7 -31 41 C-28.36 40.34 -25.72 39.68 -23 39 C-23.04125 38.21625 -23.0825 37.4325 -23.125 36.625 C-23 34 -23 34 -21 32 C-20.29289322 30.35008418 -19.62056011 28.68437744 -19 27 C-18.34 27.33 -17.68 27.66 -17 28 C-17.33 28.33 -17.66 28.66 -18 29 C-18.04063832 30.66617115 -18.042721 32.33388095 -18 34 C-17.7215625 32.824375 -17.7215625 32.824375 -17.4375 31.625 C-16.963125 30.75875 -16.48875 29.8925 -16 29 C-14.2675 28.5359375 -14.2675 28.5359375 -12.5 28.0625 C-11.345 27.711875 -10.19 27.36125 -9 27 C-7.5 24.16666667 -7.5 24.16666667 -7 21 C-6.79375 20.21625 -6.5875 19.4325 -6.375 18.625 C-6.25125 18.08875 -6.1275 17.5525 -6 17 C-5.01 17.99 -4.02 18.98 -3 20 C-3.50603992 17.83125748 -3.99983813 16.00032373 -5 14 C-5.54942113 8.28602029 -4.53067525 5.49358668 -1 1 C-0.67 0.67 -0.34 0.34 0 0 Z " fill="#F8F5AF" transform="translate(56,15)"/>
<path d="M0 0 C3.1765105 1.40158541 5.33392781 3.94190896 7.68988037 6.41844177 C8.19648193 6.93857849 8.7030835 7.45871521 9.22503662 7.99461365 C10.47022442 9.27504261 11.70599539 10.56461732 12.93988037 11.85594177 C12.60988037 12.84594177 12.27988037 13.83594177 11.93988037 14.85594177 C7.56128782 14.35071955 5.12336813 11.67766956 1.93988037 8.85594177 C1.69238037 9.47469177 1.44488037 10.09344177 1.18988037 10.73094177 C-0.06011963 12.85594177 -0.06011963 12.85594177 -2.12261963 13.66844177 C-2.76199463 14.06031677 -3.40136963 14.45219177 -4.06011963 14.85594177 C-4.87882148 18.41800838 -4.87882148 18.41800838 -5.06011963 21.85594177 C-6.05011963 21.85594177 -7.04011963 21.85594177 -8.06011963 21.85594177 C-7.73011963 19.54594177 -7.40011963 17.23594177 -7.06011963 14.85594177 C-8.05011963 15.18594177 -9.04011963 15.51594177 -10.06011963 15.85594177 C-10.67976801 17.90508631 -10.67976801 17.90508631 -10.93511963 20.29344177 C-11.38824463 22.75437927 -11.38824463 22.75437927 -12.06011963 24.85594177 C-14.68511963 26.41844177 -14.68511963 26.41844177 -17.06011963 26.85594177 C-16.73011963 24.87594177 -16.40011963 22.89594177 -16.06011963 20.85594177 C-19.05952893 21.93754318 -19.05952893 21.93754318 -22.06011963 23.85594177 C-22.78057726 25.83720027 -23.44013222 27.8409827 -24.06011963 29.85594177 C-25.90400915 32.3377174 -27.94269259 34.60534322 -30.06011963 36.85594177 C-29.23511963 37.80469177 -28.41011963 38.75344177 -27.56011963 39.73094177 C-25.06011963 42.60594177 -25.06011963 42.60594177 -25.06011963 44.85594177 C-29.84913047 44.11917087 -33.77188553 41.49089317 -36.74371338 37.71922302 C-37.17812744 37.10434021 -37.6125415 36.4894574 -38.06011963 35.85594177 C-33.02393566 30.69328537 -27.96848727 25.55009451 -22.89898682 20.42015076 C-21.17570326 18.67167775 -19.45692787 16.91874984 -17.74273682 15.16136169 C-15.28205056 12.64022506 -12.80574846 10.13540358 -10.32574463 7.63328552 C-9.17552826 6.44435951 -9.17552826 6.44435951 -8.0020752 5.23141479 C-7.28163025 4.51059219 -6.5611853 3.78976959 -5.81890869 3.04710388 C-5.188255 2.40534714 -4.55760132 1.76359039 -3.90783691 1.10238647 C-2.06011963 -0.14405823 -2.06011963 -0.14405823 0 0 Z " fill="#E5D891" transform="translate(40.06011962890625,3.1440582275390625)"/>
<path d="M0 0 C0.66 0.33 1.32 0.66 2 1 C2 1.66 2 2.32 2 3 C4.64738916 4.4606285 5.89448334 5 9 5 C9.66 4.34 10.32 3.68 11 3 C11 6 11 6 10 7.75 C8.58527816 10.93312414 8.74967953 13.55809352 9 17 C9.66 17.99 10.32 18.98 11 20 C10.625 22.1875 10.625 22.1875 10 24 C9.01 23.01 8.02 22.02 7 21 C6.9175 22.258125 6.835 23.51625 6.75 24.8125 C6.25293772 28.71996181 6.25293772 28.71996181 4.25 30.9375 C2 32 2 32 -0.625 32.375 C-1.40875 32.58125 -2.1925 32.7875 -3 33 C-4.37466625 35.47636012 -4.37466625 35.47636012 -5 38 C-5.33 38 -5.66 38 -6 38 C-6.3125 35.1875 -6.3125 35.1875 -6 32 C-2.99271862 29.59417489 0.40521333 28.33520648 4 27 C3.54177532 23.53058454 3.10868317 20.32604951 2 17 C1.34 17.99 0.68 18.98 0 20 C0.45336079 15.12637153 1.7089159 12.60957611 5 9 C3.48694773 9.87360756 1.98978362 10.77477763 0.5 11.6875 C-0.3353125 12.18636719 -1.170625 12.68523438 -2.03125 13.19921875 C-4.25917207 14.8455635 -4.25917207 14.8455635 -4.3125 17.53125 C-3.99279112 20.05695012 -3.56727532 22.51817047 -3 25 C-3.66 24.01 -4.32 23.02 -5 22 C-6.32 24.31 -7.64 26.62 -9 29 C-9.33 28.01 -9.66 27.02 -10 26 C-9.34 25.34 -8.68 24.68 -8 24 C-7.3574765 21.93125966 -7.3574765 21.93125966 -7 20 C-7.66 20 -8.32 20 -9 20 C-8.43040847 16.37386801 -7.07625466 14.74482259 -4.4375 12.25 C-3.47650391 11.32960938 -3.47650391 11.32960938 -2.49609375 10.390625 C-1.75552734 9.70226562 -1.75552734 9.70226562 -1 9 C-1.33 8.34 -1.66 7.68 -2 7 C-1.39239518 4.6505947 -0.72870472 2.31470912 0 0 Z " fill="#4B401E" transform="translate(43,12)"/>
<path d="M0 0 C0.33 0.66 0.66 1.32 1 2 C1.66 1.67 2.32 1.34 3 1 C2.814375 2.2375 2.62875 3.475 2.4375 4.75 C2.03292648 7.84444071 2.18786107 9.98348396 3 13 C1 15 1 15 -1.625 15.125 C-2.40875 15.08375 -3.1925 15.0425 -4 15 C-4.33 15.99 -4.66 16.98 -5 18 C-7.94389782 19.17755913 -8.89953913 19.03348696 -12 18 C-13.99961564 17.96079185 -16.00049364 17.95556653 -18 18 C-18 17.34 -18 16.68 -18 16 C-19.65 16.33 -21.3 16.66 -23 17 C-22.9375 14.6875 -22.9375 14.6875 -22 12 C-15.92563744 8.13449655 -9.03090618 8.30661095 -2 8 C-2 6.35 -2 4.7 -2 3 C-2.99 3.495 -2.99 3.495 -4 4 C-4 4.99 -4 5.98 -4 7 C-5.32 6.34 -6.64 5.68 -8 5 C-7.67 4.01 -7.34 3.02 -7 2 C-4.56723614 0.81480735 -2.71982714 0 0 0 Z " fill="#6F5E2A" transform="translate(51,47)"/>
<path d="M0 0 C6.78376359 5.55035203 12.85522968 11.76442027 19 18 C17.54758264 21.33234574 15.7149914 23.54225606 13.15625 26.109375 C12.40472656 26.86347656 11.65320313 27.61757813 10.87890625 28.39453125 C10.09386719 29.17183594 9.30882813 29.94914062 8.5 30.75 C7.71496094 31.54277344 6.92992188 32.33554687 6.12109375 33.15234375 C4.99380859 34.27576172 4.99380859 34.27576172 3.84375 35.421875 C3.15474609 36.10862305 2.46574219 36.79537109 1.75585938 37.50292969 C0 39 0 39 -2 39 C-2.69897461 36.7355957 -2.69897461 36.7355957 -3 34 C-1.73657227 32.05541992 -1.73657227 32.05541992 0.18359375 30.23046875 C0.86357422 29.56982422 1.54355469 28.90917969 2.24414062 28.22851562 C2.96794922 27.55498047 3.69175781 26.88144531 4.4375 26.1875 C5.15744141 25.49462891 5.87738281 24.80175781 6.61914062 24.08789062 C8.40007996 22.37771709 10.19346102 20.68304201 12 19 C8.11818592 14.42084738 8.11818592 14.42084738 4.1015625 9.9609375 C0.08219178 5.64383562 0.08219178 5.64383562 -0.375 2.0625 C-0.25125 1.381875 -0.1275 0.70125 0 0 Z " fill="#CEAC53" transform="translate(58,21)"/>
<path d="M0 0 C1.2077558 3.62326739 0.54311128 4.64146369 -1 8 C2.23549631 7.28100082 4.8390781 6.26436876 8 5 C8 8.96 8 12.92 8 17 C7.071875 17.185625 6.14375 17.37125 5.1875 17.5625 C1.76212803 19.10727559 1.4794021 19.38621238 0.125 22.625 C-0.24625 23.73875 -0.6175 24.8525 -1 26 C-1.66 26 -2.32 26 -3 26 C-3 25.34 -3 24.68 -3 24 C-4.32 24 -5.64 24 -7 24 C-6.85834107 21.60385425 -6.71181159 19.20817103 -6.5625 16.8125 C-6.52318359 16.13896484 -6.48386719 15.46542969 -6.44335938 14.77148438 C-5.96537241 7.23399756 -5.96537241 7.23399756 -5 4 C-2.4375 2.6875 -2.4375 2.6875 0 2 C0 1.34 0 0.68 0 0 Z " fill="#FEFCCE" transform="translate(24,22)"/>
<path d="M0 0 C1 2 1 2 0.875 5.875 C0.80633269 9.69976917 1.66217369 10.98030768 4 14 C4.6049167 17.56228723 4.76130652 19.87616657 2.6875 22.9375 C1.62758373 24.16048031 0.5357345 25.35669982 -0.58984375 26.51953125 C-2.10464271 27.96506458 -2.10464271 27.96506458 -3 30 C-5.64 30 -8.28 30 -11 30 C-11 29.34 -11 28.68 -11 28 C-10.01 27.34 -9.02 26.68 -8 26 C-7.42006301 23.80545319 -7.42006301 23.80545319 -7.3125 21.375 C-7.24675781 20.55773437 -7.18101563 19.74046875 -7.11328125 18.8984375 C-7.05720703 17.95871094 -7.05720703 17.95871094 -7 17 C-5.68 17.99 -4.36 18.98 -3 20 C-3.50603992 17.83125748 -3.99983813 16.00032373 -5 14 C-5.54942113 8.28602029 -4.53067525 5.49358668 -1 1 C-0.67 0.67 -0.34 0.34 0 0 Z " fill="#FEFDD2" transform="translate(56,15)"/>
<path d="M0 0 C0.99 0.33 1.98 0.66 3 1 C2.50769897 1.42124649 2.01539795 1.84249298 1.50817871 2.27650452 C-3.29757181 6.42893262 -7.87262897 10.73744489 -12.34375 15.24609375 C-12.99831177 15.90207047 -13.65287354 16.55804718 -14.32727051 17.23390198 C-16.38723823 19.29940145 -18.44367366 21.36837595 -20.5 23.4375 C-21.9086205 24.85114434 -23.31747267 26.26455786 -24.7265625 27.67773438 C-28.15372133 31.11583149 -31.57772019 34.55704656 -35 38 C-31.81597912 41.76672156 -28.63838094 45.49002591 -25.1328125 48.96484375 C-24.14667969 49.94614258 -24.14667969 49.94614258 -23.140625 50.94726562 C-22.47546875 51.60404297 -21.8103125 52.26082031 -21.125 52.9375 C-20.43664062 53.62134766 -19.74828125 54.30519531 -19.0390625 55.00976562 C-17.36166489 56.67551464 -15.68196209 58.3388622 -14 60 C-14.33 60.66 -14.66 61.32 -15 62 C-15.66 61.34 -16.32 60.68 -17 60 C-19.57061311 59.35232207 -19.57061311 59.35232207 -22 59 C-22 57.68 -22 56.36 -22 55 C-23.32 55 -24.64 55 -26 55 C-26 53.68 -26 52.36 -26 51 C-27.32 51 -28.64 51 -30 51 C-30 49.68 -30 48.36 -30 47 C-31.32 47 -32.64 47 -34 47 C-34.68025637 45.00458132 -35.34490497 43.00382009 -36 41 C-36.25462509 40.35238708 -36.50925018 39.70477417 -36.77159119 39.03753662 C-37 37 -37 37 -35.71559143 35.11431885 C-35.05606979 34.46590027 -34.39654816 33.81748169 -33.71704102 33.14941406 C-32.97619766 32.40894836 -32.23535431 31.66848267 -31.47206116 30.90557861 C-30.65757004 30.11689392 -29.84307892 29.32820923 -29.00390625 28.515625 C-27.76990334 27.29223419 -27.76990334 27.29223419 -26.51097107 26.04412842 C-23.87294754 23.43416015 -21.21809526 20.84207574 -18.5625 18.25 C-16.77425751 16.48682557 -14.98713284 14.72251665 -13.20117188 12.95703125 C-8.8136817 8.62475856 -4.41223856 4.30705692 0 0 Z " fill="#0D0A05" transform="translate(38,1)"/>
<path d="M0 0 C0.66 0.33 1.32 0.66 2 1 C0.02 3.31 -1.96 5.62 -4 8 C-3.34 7.67 -2.68 7.34 -2 7 C0.47272727 15.58181818 0.47272727 15.58181818 -1 20 C-2 21 -2 21 -4.28515625 21.09765625 C-5.65994141 21.08025391 -5.65994141 21.08025391 -7.0625 21.0625 C-7.98160156 21.05347656 -8.90070312 21.04445313 -9.84765625 21.03515625 C-10.55792969 21.02355469 -11.26820312 21.01195313 -12 21 C-11.34 20.67 -10.68 20.34 -10 20 C-10.99 19.34 -11.98 18.68 -13 18 C-12.34 16.35 -11.68 14.7 -11 13 C-10.34 13 -9.68 13 -9 13 C-9.33 12.67 -9.66 12.34 -10 12 C-10.3046875 9.640625 -10.3046875 9.640625 -10 7 C-8.3203125 5.234375 -8.3203125 5.234375 -6.125 3.75 C-5.04605469 2.99976563 -5.04605469 2.99976563 -3.9453125 2.234375 C-2 1 -2 1 0 0 Z " fill="#E7E1A9" transform="translate(48,20)"/>
<path d="M0 0 C0 3 0 3 -1.30854797 4.68276978 C-1.9212706 5.29486298 -2.53399323 5.90695618 -3.1652832 6.53759766 C-3.85632645 7.23486969 -4.54736969 7.93214172 -5.25935364 8.65054321 C-6.01552475 9.39750458 -6.77169586 10.14446594 -7.55078125 10.9140625 C-8.3205278 11.68430756 -9.09027435 12.45455261 -9.88334656 13.24813843 C-11.51491372 14.87736217 -13.15018206 16.50288642 -14.78881836 18.125 C-17.30039965 20.61301319 -19.79842869 23.11404488 -22.29492188 25.6171875 C-23.87941783 27.19610619 -25.46467912 28.77425729 -27.05078125 30.3515625 C-27.80087967 31.10257233 -28.55097809 31.85358215 -29.32380676 32.62734985 C-30.02430649 33.31831757 -30.72480621 34.00928528 -31.4465332 34.72119141 C-32.06164261 35.33169342 -32.67675201 35.94219543 -33.3105011 36.57119751 C-35 38 -35 38 -38 39 C-38.66 38.34 -39.32 37.68 -40 37 C-42.57061311 36.35232207 -42.57061311 36.35232207 -45 36 C-45 34.68 -45 33.36 -45 32 C-46.32 32 -47.64 32 -49 32 C-49 30.68 -49 29.36 -49 28 C-50.32 28 -51.64 28 -53 28 C-53 26.35 -53 24.7 -53 23 C-51.02 23.99 -51.02 23.99 -49 25 C-49 25.66 -49 26.32 -49 27 C-48.12601563 27.38285156 -48.12601563 27.38285156 -47.234375 27.7734375 C-44.78611777 29.11741087 -43.18256752 30.61810296 -41.25 32.625 C-40.63640625 33.25664063 -40.0228125 33.88828125 -39.390625 34.5390625 C-38.70226562 35.26222656 -38.70226562 35.26222656 -38 36 C-34.90820864 34.6238464 -32.80361247 33.04841555 -30.42480469 30.65185547 C-29.74440125 29.97130096 -29.0639978 29.29074646 -28.36297607 28.58956909 C-27.63991272 27.85618317 -26.91684937 27.12279724 -26.171875 26.3671875 C-25.04836639 25.23943405 -25.04836639 25.23943405 -23.90216064 24.08889771 C-21.5133698 21.68892099 -19.13163103 19.28207991 -16.75 16.875 C-15.13066831 15.24563648 -13.51088198 13.61672466 -11.890625 11.98828125 C-7.92179495 7.99741194 -3.95873101 4.00088585 0 0 Z " fill="#080600" transform="translate(77,40)"/>
<path d="M0 0 C2.25 0.25 2.25 0.25 4 1 C3.3125 3.3125 3.3125 3.3125 2 6 C1.154375 6.45375 0.30875 6.9075 -0.5625 7.375 C-3.41856951 8.87227246 -3.41856951 8.87227246 -3.8125 12.6875 C-3.9053125 14.3271875 -3.9053125 14.3271875 -4 16 C-4.99 16 -5.98 16 -7 16 C-6.67 13.69 -6.34 11.38 -6 9 C-6.99 9.33 -7.98 9.66 -9 10 C-9.61964838 12.04914454 -9.61964838 12.04914454 -9.875 14.4375 C-10.328125 16.8984375 -10.328125 16.8984375 -11 19 C-13.625 20.5625 -13.625 20.5625 -16 21 C-15.67 19.02 -15.34 17.04 -15 15 C-16.65 15.66 -18.3 16.32 -20 17 C-19.01 15.515 -19.01 15.515 -18 14 C-17.34 14 -16.68 14 -16 14 C-15.7525 13.195625 -15.505 12.39125 -15.25 11.5625 C-14.8375 10.716875 -14.425 9.87125 -14 9 C-12.25 8.4375 -12.25 8.4375 -10 8 C-6.88852294 6.12014928 -4.3389993 4.368911 -1.875 1.6875 C-1.25625 1.130625 -0.6375 0.57375 0 0 Z " fill="#70653E" transform="translate(39,9)"/>
<path d="M0 0 C4.13621084 3.3810038 7.81316569 6.66590534 11 11 C9.9171875 11.61875 9.9171875 11.61875 8.8125 12.25 C6.02030138 13.98736803 3.52987415 15.90381857 1 18 C1 14.7 1 11.4 1 8 C-2.08669204 11.08669204 -2.44855089 11.91927658 -3 16 C-3.99 16.33 -4.98 16.66 -6 17 C-6.3125 14.8125 -6.3125 14.8125 -6 12 C-5.195625 11.21625 -4.39125 10.4325 -3.5625 9.625 C-0.43508318 6.42130472 -0.25778263 4.3823047 0 0 Z " fill="#4A3D1D" transform="translate(60,29)"/>
<path d="M0 0 C2.5390625 1.171875 2.5390625 1.171875 5.078125 2.34375 C8.95800248 3.66858621 12.05384923 2.8045238 15.75 1.5 C16.54921875 1.2215625 17.3484375 0.943125 18.171875 0.65625 C18.77515625 0.4396875 19.3784375 0.223125 20 0 C18.52278578 3.45201639 16.56205999 5.64961936 13.875 8.25 C13.15054688 8.95640625 12.42609375 9.6628125 11.6796875 10.390625 C11.12539063 10.92171875 10.57109375 11.4528125 10 12 C6.54798361 10.52278578 4.35038064 8.56205999 1.75 5.875 C1.04359375 5.15054688 0.3371875 4.42609375 -0.390625 3.6796875 C-0.92171875 3.12539062 -1.4528125 2.57109375 -2 2 C-1.34 1.34 -0.68 0.68 0 0 Z " fill="#BA8729" transform="translate(31,65)"/>
<path d="M0 0 C4.72899388 3.86917681 9.11269322 8.00302036 13.4375 12.3125 C13.98180664 12.85229492 14.52611328 13.39208984 15.08691406 13.94824219 C19 17.87627307 19 17.87627307 19 19 C16.359375 19.33203125 16.359375 19.33203125 13 19 C10.80127375 17.26865005 9.10520841 15.72514581 7.25 13.6875 C6.52876953 12.93823242 6.52876953 12.93823242 5.79296875 12.17382812 C0.05292993 6.13799343 0.05292993 6.13799343 -0.125 2.3125 C-0.08375 1.549375 -0.0425 0.78625 0 0 Z " fill="#E3C66C" transform="translate(58,21)"/>
<path d="M0 0 C3.15688496 6.31376993 0.37343245 15.43940751 -1 22 C-1.33 21.34 -1.66 20.68 -2 20 C-2.61875 19.731875 -3.2375 19.46375 -3.875 19.1875 C-6.64126132 17.64164808 -7.54655436 15.76154672 -9 13 C-8.51789062 12.56429687 -8.03578125 12.12859375 -7.5390625 11.6796875 C-3.67563714 8.03702931 -1.17599254 5.35729937 0 0 Z " fill="#413316" transform="translate(18,26)"/>
<path d="M0 0 C0.66 0 1.32 0 2 0 C0.33248852 3.94139078 -2.22710649 6.7892812 -5 10 C-4.175 10.94875 -3.35 11.8975 -2.5 12.875 C0 15.75 0 15.75 0 18 C-4.89647119 17.24669674 -8.74715297 14.50341644 -11.875 10.75 C-12.431875 9.88375 -12.431875 9.88375 -13 9 C-12.01 8.34 -11.02 7.68 -10 7 C-10 7.66 -10 8.32 -10 9 C-9.34 9.33 -8.68 9.66 -8 10 C-7.7525 9.21625 -7.505 8.4325 -7.25 7.625 C-5.80254826 4.58535135 -4.97357402 4.30093863 -2 3 C-1.34 2.01 -0.68 1.02 0 0 Z " fill="#D4B45D" transform="translate(15,30)"/>
<path d="M0 0 C1.69515625 3.39031249 0.68259224 6.66349086 0.01171875 10.2890625 C-1.45343077 14.21498438 -3.68151517 15.46062063 -7.3203125 17.29296875 C-7.87460937 17.52628906 -8.42890625 17.75960937 -9 18 C-8.67 16.35 -8.34 14.7 -8 13 C-8.99 13.495 -8.99 13.495 -10 14 C-10.33 12.68 -10.66 11.36 -11 10 C-10.01 10 -9.02 10 -8 10 C-7.67 9.01 -7.34 8.02 -7 7 C-6.67 7.66 -6.34 8.32 -6 9 C-5.34 9 -4.68 9 -4 9 C-4.0825 8.2575 -4.165 7.515 -4.25 6.75 C-3.92894816 3.21842973 -2.64734383 2.23369636 0 0 Z " fill="#E4DC99" transform="translate(61,36)"/>
<path d="M0 0 C4.44926052 0.41314562 6.84100104 3.50461527 9.75 6.5625 C10.25660156 7.08263672 10.76320313 7.60277344 11.28515625 8.13867188 C12.53034405 9.41910084 13.76611502 10.70867554 15 12 C14.67 12.99 14.34 13.98 14 15 C9.71929301 14.52436589 7.6995915 12.19688467 5 9 C3.6875 5.6875 3.6875 5.6875 3 3 C2.01 3 1.02 3 0 3 C0 2.01 0 1.02 0 0 Z " fill="#F7E898" transform="translate(38,3)"/>
<path d="M0 0 C0.66 0.33 1.32 0.66 2 1 C1.67 1.33 1.34 1.66 1 2 C0.63239269 4.32817964 0.29758419 6.6618385 0 9 C-0.66 9 -1.32 9 -2 9 C-2.33 10.65 -2.66 12.3 -3 14 C-2.34 14.33 -1.68 14.66 -1 15 C-4.63 16.32 -8.26 17.64 -12 19 C-12 17.35 -12 15.7 -12 14 C-9.36 13.34 -6.72 12.68 -4 12 C-4.04125 11.21625 -4.0825 10.4325 -4.125 9.625 C-4 7 -4 7 -2 5 C-1.29289322 3.35008418 -0.62056011 1.68437744 0 0 Z " fill="#EDE495" transform="translate(37,42)"/>
<path d="M0 0 C0.556875 0.268125 1.11375 0.53625 1.6875 0.8125 C1 3.125 1 3.125 -0.3125 5.8125 C-1.158125 6.26625 -2.00375 6.72 -2.875 7.1875 C-5.73106951 8.68477246 -5.73106951 8.68477246 -6.125 12.5 C-6.186875 13.593125 -6.24875 14.68625 -6.3125 15.8125 C-7.3025 15.8125 -8.2925 15.8125 -9.3125 15.8125 C-8.99804487 13.47654762 -8.6621418 11.14344534 -8.3125 8.8125 C-8.23 8.11125 -8.1475 7.41 -8.0625 6.6875 C-6.61942914 3.07982285 -4.08958328 -0.33158783 0 0 Z " fill="#463A1B" transform="translate(41.3125,9.1875)"/>
<path d="M0 0 C0.598125 0.309375 1.19625 0.61875 1.8125 0.9375 C4.08956772 2.10209704 4.08956772 2.10209704 7 3 C7.33 2.34 7.66 1.68 8 1 C8 1.66 8 2.32 8 3 C8.66 3 9.32 3 10 3 C10.33 4.98 10.66 6.96 11 9 C11.66 9 12.32 9 13 9 C13 9.66 13 10.32 13 11 C13.66 11 14.32 11 15 11 C15.33 12.32 15.66 13.64 16 15 C11.69422496 13.33830526 8.90988145 10.16919694 5.75 6.9375 C5.19570312 6.38255859 4.64140625 5.82761719 4.0703125 5.25585938 C0 1.14043257 0 1.14043257 0 0 Z " fill="#CCA446" transform="translate(8,45)"/>
<path d="M0 0 C0.33 0 0.66 0 1 0 C1 1.98 1 3.96 1 6 C3.86724686 5.42655063 4.8614515 5.1385485 7 3 C6.125 7.875 6.125 7.875 5 9 C3.31391034 9.07205511 1.62499341 9.08386068 -0.0625 9.0625 C-0.98160156 9.05347656 -1.90070312 9.04445313 -2.84765625 9.03515625 C-3.55792969 9.02355469 -4.26820312 9.01195312 -5 9 C-4.34 8.67 -3.68 8.34 -3 8 C-3.99 7.34 -4.98 6.68 -6 6 C-5.34 4.35 -4.68 2.7 -4 1 C-3.01 1 -2.02 1 -1 1 C-0.67 0.67 -0.34 0.34 0 0 Z " fill="#EEE9B6" transform="translate(41,32)"/>
<path d="M0 0 C0.33 0.66 0.66 1.32 1 2 C3.01669827 3.13350534 3.01669827 3.13350534 5 4 C4.21625 4.061875 3.4325 4.12375 2.625 4.1875 C1.75875 4.455625 0.8925 4.72375 0 5 C-1.31068333 7.44288628 -1.31068333 7.44288628 -2 10 C-3 11 -3 11 -6.0625 11.0625 C-7.031875 11.041875 -8.00125 11.02125 -9 11 C-8.34 8.69 -7.68 6.38 -7 4 C-6.01 4 -5.02 4 -4 4 C-1.81222534 2.0624994 -1.81222534 2.0624994 0 0 Z " fill="#FEFCC0" transform="translate(37,38)"/>
<path d="M0 0 C-1 1.5625 -1 1.5625 -3 3 C-5.02530578 2.80711374 -7.05332205 2.60516307 -9.05859375 2.26171875 C-11.26709377 1.9639934 -12.91543924 2.21828972 -15 3 C-13.02 3.66 -11.04 4.32 -9 5 C-9.33 5.66 -9.66 6.32 -10 7 C-12.01822917 6.73958333 -14.03645833 6.47916667 -16.0546875 6.21875 C-18.00498344 5.9627515 -18.00498344 5.9627515 -20 6 C-20 5.34 -20 4.68 -20 4 C-20.66 3.67 -21.32 3.34 -22 3 C-16.09305809 -0.15952707 -6.2996602 -3.1498301 0 0 Z " fill="#181204" transform="translate(51,56)"/>
<path d="M0 0 C0.33 0.66 0.66 1.32 1 2 C1.99 1.34 2.98 0.68 4 0 C4.99 0.33 5.98 0.66 7 1 C5.54782324 2.50596108 4.08807139 4.00462104 2.625 5.5 C1.81289063 6.3353125 1.00078125 7.170625 0.1640625 8.03125 C-2 10 -2 10 -4 10 C-4.8125 7.8125 -4.8125 7.8125 -5 5 C-2.5625 2.1875 -2.5625 2.1875 0 0 Z " fill="#B9923D" transform="translate(60,50)"/>
<path d="M0 0 C0.66 0.33 1.32 0.66 2 1 C1.835 2.093125 1.67 3.18625 1.5 4.3125 C0.93281816 7.87525873 0.93281816 7.87525873 1 11 C-1.5 13.1875 -1.5 13.1875 -4 15 C-3.67 13.02 -3.34 11.04 -3 9 C-3.99 9 -4.98 9 -6 9 C-5.67 8.01 -5.34 7.02 -5 6 C-4.34 5.690625 -3.68 5.38125 -3 5.0625 C-0.79394438 4.17972859 -0.79394438 4.17972859 -0.25 1.875 C-0.1675 1.25625 -0.085 0.6375 0 0 Z " fill="#F1EFBE" transform="translate(41,11)"/>
<path d="M0 0 C0.68707555 2.49064888 1 4.37886292 1 7 C3.31 5.02 5.62 3.04 8 1 C6.39592098 4.20815804 5.58286066 5.66358318 3.1796875 8.015625 C2.64472656 8.54414062 2.10976563 9.07265625 1.55859375 9.6171875 C1.00300781 10.15601563 0.44742188 10.69484375 -0.125 11.25 C-0.68832031 11.80429687 -1.25164063 12.35859375 -1.83203125 12.9296875 C-3.21686028 14.29104485 -4.60783204 15.64614859 -6 17 C-6.99 16.67 -7.98 16.34 -9 16 C-4.25 11.125 -4.25 11.125 -2 10 C-1.31068656 7.65092125 -1.31068656 7.65092125 -0.875 4.9375 C-0.62363281 3.55884766 -0.62363281 3.55884766 -0.3671875 2.15234375 C-0.24601562 1.44207031 -0.12484375 0.73179688 0 0 Z " fill="#211A0B" transform="translate(61,39)"/>
<path d="M0 0 C1.45169732 2.90339465 0.72348441 4.90874842 0 8 C-0.99 8.495 -0.99 8.495 -2 9 C-2.042721 10.66611905 -2.04063832 12.33382885 -2 14 C-1.67 14.33 -1.34 14.66 -1 15 C-0.95919217 16.99958364 -0.95745644 19.00045254 -1 21 C-1.66 20.67 -2.32 20.34 -3 20 C-3.5625 18.0625 -3.5625 18.0625 -4 16 C-4.33 15.34 -4.66 14.68 -5 14 C-5.54942113 8.28602029 -4.53067525 5.49358668 -1 1 C-0.67 0.67 -0.34 0.34 0 0 Z " fill="#EBE3AD" transform="translate(56,15)"/>
<path d="M0 0 C0.66 0 1.32 0 2 0 C2 0.66 2 1.32 2 2 C3.051875 1.814375 4.10375 1.62875 5.1875 1.4375 C8.57119882 1.04920669 10.76425888 1.11752515 14 2 C14 2.66 14 3.32 14 4 C14.99 4.33 15.98 4.66 17 5 C13.98968256 5.93423645 13.13349732 6.04449911 10 5 C8.00038436 4.96079185 5.99950636 4.95556653 4 5 C4 4.34 4 3.68 4 3 C2.35 3.33 0.7 3.66 -1 4 C-0.67 2.68 -0.34 1.36 0 0 Z " fill="#C0B064" transform="translate(29,60)"/>
<path d="M0 0 C6.41069287 5.27101414 12.18590512 11.09128152 18 17 C14.25983417 17 13.54723807 16.0658409 10.8125 13.625 C10.09707031 12.99851562 9.38164063 12.37203125 8.64453125 11.7265625 C7 10 7 10 7 8 C6.38125 7.896875 5.7625 7.79375 5.125 7.6875 C3 7 3 7 1 4 C0.375 1.8125 0.375 1.8125 0 0 Z " fill="#F6E99C" transform="translate(58,21)"/>
<path d="M0 0 C1.65 1.65 3.3 3.3 5 5 C2.69 7.31 0.38 9.62 -2 12 C-3.01527342 7.93890631 -3.05430484 7.33033162 -1.5625 3.75 C-1.27503906 3.04359375 -0.98757812 2.3371875 -0.69140625 1.609375 C-0.46324219 1.07828125 -0.23507813 0.5471875 0 0 Z " fill="#795D25" transform="translate(64,35)"/>
<path d="M0 0 C0.99 0.33 1.98 0.66 3 1 C3.042721 2.66611905 3.04063832 4.33382885 3 6 C2 7 2 7 -0.50390625 7.09765625 C-2.01791016 7.08025391 -2.01791016 7.08025391 -3.5625 7.0625 C-4.57441406 7.05347656 -5.58632813 7.04445313 -6.62890625 7.03515625 C-7.41136719 7.02355469 -8.19382813 7.01195312 -9 7 C-8.34 6.34 -7.68 5.68 -7 5 C-6.01 5 -5.02 5 -4 5 C-3.67 4.34 -3.34 3.68 -3 3 C-2.01 3 -1.02 3 0 3 C-0.66 2.34 -1.32 1.68 -2 1 C-1.34 0.67 -0.68 0.34 0 0 Z " fill="#EEE395" transform="translate(47,49)"/>
<path d="M0 0 C0.33 0 0.66 0 1 0 C1.33 3.3 1.66 6.6 2 10 C0.35 10.33 -1.3 10.66 -3 11 C-3.36785986 4.62376238 -3.36785986 4.62376238 -1.5625 1.5625 C-1.046875 1.046875 -0.53125 0.53125 0 0 Z " fill="#F4EEBC" transform="translate(45,27)"/>
<path d="M0 0 C1.21386936 3.64160808 0.6674695 4.33165469 -0.9375 7.6875 C-1.31777344 8.49574219 -1.69804687 9.30398437 -2.08984375 10.13671875 C-2.39019531 10.75160156 -2.69054687 11.36648437 -3 12 C-3.66 12 -4.32 12 -5 12 C-5.75 9.25 -5.75 9.25 -6 6 C-4.1875 3.625 -4.1875 3.625 -2 2 C-1.34 2 -0.68 2 0 2 C0 1.34 0 0.68 0 0 Z " fill="#EDE8AF" transform="translate(24,22)"/>
<path d="M0 0 C0.33 0 0.66 0 1 0 C1 1.65 1 3.3 1 5 C1.66 5 2.32 5 3 5 C5 8 5 8 4.625 10.1875 C4.41875 10.785625 4.2125 11.38375 4 12 C1.30274481 10.11192137 -0.13216429 8.80175356 -2 6 C-1.45945946 1.45945946 -1.45945946 1.45945946 0 0 Z " fill="#4D411F" transform="translate(49,24)"/>
<path d="M0 0 C0.33 0.66 0.66 1.32 1 2 C1.66 2 2.32 2 3 2 C2.32829194 5.8063457 1.27253436 9.35206816 0 13 C-1.9375 12.6875 -1.9375 12.6875 -4 12 C-4.33 11.01 -4.66 10.02 -5 9 C-3.68 9 -2.36 9 -1 9 C-0.67 6.03 -0.34 3.06 0 0 Z " fill="#E0D89F" transform="translate(33,30)"/>
<path d="M0 0 C-1.38188453 3.21043882 -2.92421903 5.04936365 -5.625 7.25 C-6.57246094 8.03117187 -6.57246094 8.03117187 -7.5390625 8.828125 C-8.02117188 9.21484375 -8.50328125 9.6015625 -9 10 C-8.875 6.6875 -8.875 6.6875 -8 3 C-5.25818793 1.19157076 -3.32132707 0 0 0 Z " fill="#A9791F" transform="translate(51,65)"/>
<path d="M0 0 C0.33 0.66 0.66 1.32 1 2 C1.66 1.67 2.32 1.34 3 1 C2.34 2.65 1.68 4.3 1 6 C0.01 5.01 -0.98 4.02 -2 3 C-2.99 3.495 -2.99 3.495 -4 4 C-4 4.99 -4 5.98 -4 7 C-5.32 6.34 -6.64 5.68 -8 5 C-7.67 4.01 -7.34 3.02 -7 2 C-4.56723614 0.81480735 -2.71982714 0 0 0 Z " fill="#4C452A" transform="translate(51,47)"/>
<path d="M0 0 C0.28875 0.61875 0.5775 1.2375 0.875 1.875 C1.93720042 4.13325765 1.93720042 4.13325765 4 6 C3.625 8.125 3.625 8.125 3 10 C2.67 9.01 2.34 8.02 2 7 C0.68 9.31 -0.64 11.62 -2 14 C-2.33 13.01 -2.66 12.02 -3 11 C-2.34 10.34 -1.68 9.68 -1 9 C-0.3574765 6.93125966 -0.3574765 6.93125966 0 5 C-0.66 5 -1.32 5 -2 5 C-1.125 1.125 -1.125 1.125 0 0 Z " fill="#231D0C" transform="translate(36,27)"/>
<path d="M0 0 C3.16717283 1.58358642 4.73268318 2.45263699 6.3125 5.6875 C6.539375 6.450625 6.76625 7.21375 7 8 C7.99 8 8.98 8 10 8 C9.67 9.32 9.34 10.64 9 12 C7.68 11.67 6.36 11.34 5 11 C4.67 8.69 4.34 6.38 4 4 C3.34 4 2.68 4 2 4 C2 3.34 2 2.68 2 2 C1.34 2 0.68 2 0 2 C0 1.34 0 0.68 0 0 Z " fill="#5B4E27" transform="translate(19,52)"/>
<path d="M0 0 C0 0.99 0 1.98 0 3 C-3.08809695 4.76462683 -4.23312136 5 -8 5 C-8.33 4.01 -8.66 3.02 -9 2 C-5.5647952 -0.29013653 -4.014669 -0.17842973 0 0 Z " fill="#7C7246" transform="translate(33,51)"/>
<path d="M0 0 C2.50298434 2.93828597 3.46930939 5.17902761 4 9 C2.02 9.99 2.02 9.99 0 11 C-1.37432457 7.18243176 -0.67975039 3.92744671 0 0 Z " fill="#988B53" transform="translate(50,51)"/>
<path d="M0 0 C-2 2 -2 2 -4.5 2.3125 C-5.325 2.539375 -6.15 2.76625 -7 3 C-8.37466625 5.47636012 -8.37466625 5.47636012 -9 8 C-9.33 8 -9.66 8 -10 8 C-10.3125 5.1875 -10.3125 5.1875 -10 2 C-6.55956398 -1.04724333 -4.32846371 -1.36037431 0 0 Z " fill="#3E3822" transform="translate(47,42)"/>
<path d="M0 0 C0.66 0 1.32 0 2 0 C6 5.29411765 6 5.29411765 6 9 C5.01 9 4.02 9 3 9 C2.34 7.35 1.68 5.7 1 4 C0.34 4.66 -0.32 5.32 -1 6 C-1.042721 4.33388095 -1.04063832 2.66617115 -1 1 C-0.67 0.67 -0.34 0.34 0 0 Z " fill="#F7EFC2" transform="translate(54,23)"/>
<path d="M0 0 C0.66 0.33 1.32 0.66 2 1 C2 3.31 2 5.62 2 8 C0.35 8.66 -1.3 9.32 -3 10 C-2.39009109 6.44219804 -1.4216319 3.3171411 0 0 Z " fill="#332910" transform="translate(26,20)"/>
<path d="M0 0 C0.99 0 1.98 0 3 0 C2.34 2.31 1.68 4.62 1 7 C-0.32 7 -1.64 7 -3 7 C-2.38722388 4.03824877 -1.74627478 2.61941217 0 0 Z " fill="#3B321E" transform="translate(26,40)"/>
<path d="M0 0 C1.1875 1.6875 1.1875 1.6875 2 4 C0.625 6.75 0.625 6.75 -1 9 C-1.99 8.34 -2.98 7.68 -4 7 C-3.43628586 3.73045798 -2.50037734 2.17424117 0 0 Z " fill="#7D5F28" transform="translate(17,33)"/>
<path d="M0 0 C1 2 1 2 0.5 3.8125 C-1.71174733 7.03796486 -4.75550422 8.88327013 -8 11 C-8.66 10.67 -9.32 10.34 -10 10 C-6.7 6.7 -3.4 3.4 0 0 Z " fill="#D3D098" transform="translate(24,17)"/>
<path d="M0 0 C1.32 0.33 2.64 0.66 4 1 C2.71317455 3.57365089 1.55302057 3.72348972 -1 5 C-2.68889872 6.3050581 -4.3603279 7.63360658 -6 9 C-6.66 8.34 -7.32 7.68 -8 7 C-3.25 3 -3.25 3 -1 3 C-0.67 2.01 -0.34 1.02 0 0 Z " fill="#E1C86E" transform="translate(38,7)"/>
<path d="M0 0 C2 2 2 2 2 6 C2.66 6 3.32 6 4 6 C4 6.66 4 7.32 4 8 C4.66 8 5.32 8 6 8 C6.33 9.32 6.66 10.64 7 12 C3.2047869 10.50902342 1.38957269 8.24299151 -1 5 C-0.34 5 0.32 5 1 5 C0.67 3.35 0.34 1.7 0 0 Z " fill="#A68131" transform="translate(17,48)"/>
<path d="M0 0 C1.515625 1.2421875 1.515625 1.2421875 3 3 C3.15359723 5.81960626 2.54265907 8.19626149 2 11 C1 12 1 12 -1.5625 12.0625 C-2.366875 12.041875 -3.17125 12.02125 -4 12 C-3.51917969 11.60167969 -3.03835937 11.20335937 -2.54296875 10.79296875 C-0.62608175 8.56549753 -0.52258357 7.21165331 -0.3125 4.3125 C-0.21388672 3.10013672 -0.21388672 3.10013672 -0.11328125 1.86328125 C-0.07589844 1.24839844 -0.03851563 0.63351563 0 0 Z " fill="#E7DEA0" transform="translate(49,32)"/>
<path d="M0 0 C4.22591905 0.90555408 7.11180714 1.70187197 9.625 5.375 C10.77575115 7.57188856 11.89476123 9.78007598 13 12 C12.56429687 11.62488281 12.12859375 11.24976563 11.6796875 10.86328125 C11.08414063 10.35152344 10.48859375 9.83976563 9.875 9.3125 C8.92560547 8.49652344 8.92560547 8.49652344 7.95703125 7.6640625 C6.17588663 6.14955629 4.37365561 4.66581794 2.5625 3.1875 C1.716875 2.465625 0.87125 1.74375 0 1 C0 0.67 0 0.34 0 0 Z " fill="#2D2D23" transform="translate(39,2)"/>
<path d="M0 0 C0.99 0.33 1.98 0.66 3 1 C3.6875 3.0625 3.6875 3.0625 4 5 C-1.625 10 -1.625 10 -5 10 C-4.67 9.01 -4.34 8.02 -4 7 C-1.9375 6.3125 -1.9375 6.3125 0 6 C0 4.02 0 2.04 0 0 Z " fill="#694E1A" transform="translate(53,56)"/>
<path d="M0 0 C0.33 0.99 0.66 1.98 1 3 C1.66 3.33 2.32 3.66 3 4 C4.36817102 10.04275534 4.36817102 10.04275534 3.0625 13.4375 C2.711875 13.953125 2.36125 14.46875 2 15 C1.34 15 0.68 15 0 15 C0.185625 14.01 0.37125 13.02 0.5625 12 C1.17661683 7.82912322 0.65520905 4.14965731 0 0 Z " fill="#211905" transform="translate(46,27)"/>
<path d="M0 0 C1.98 0 3.96 0 6 0 C6 0.66 6 1.32 6 2 C6.99 1.67 7.98 1.34 9 1 C9.66 1.66 10.32 2.32 11 3 C10.67 3.66 10.34 4.32 10 5 C8.68 5 7.36 5 6 5 C5.67 4.34 5.34 3.68 5 3 C3.35636866 2.27840576 1.68949614 1.60648579 0 1 C0 0.67 0 0.34 0 0 Z " fill="#957D32" transform="translate(37,59)"/>
<path d="M0 0 C0.66 0.33 1.32 0.66 2 1 C1.67 1.66 1.34 2.32 1 3 C3.97 3.33 6.94 3.66 10 4 C9.67 4.66 9.34 5.32 9 6 C6.98177083 5.73958333 4.96354167 5.47916667 2.9453125 5.21875 C0.99501656 4.9627515 0.99501656 4.9627515 -1 5 C-1 4.34 -1 3.68 -1 3 C-1.66 2.67 -2.32 2.34 -3 2 C-2.01 1.34 -1.02 0.68 0 0 Z " fill="#2E2308" transform="translate(32,57)"/>
<path d="M0 0 C0.66 0.33 1.32 0.66 2 1 C1.835 2.093125 1.67 3.18625 1.5 4.3125 C0.93281816 7.87525873 0.93281816 7.87525873 1 11 C0.01 11.495 0.01 11.495 -1 12 C-1.14285714 3.42857143 -1.14285714 3.42857143 0 0 Z " fill="#EBDB96" transform="translate(41,11)"/>
<path d="M0 0 C0.66 0.33 1.32 0.66 2 1 C1.67 1.33 1.34 1.66 1 2 C0.63239269 4.32817964 0.29758419 6.6618385 0 9 C-0.66 9 -1.32 9 -2 9 C-2.33 9.99 -2.66 10.98 -3 12 C-3.625 9.625 -3.625 9.625 -4 7 C-3.34 6.34 -2.68 5.68 -2 5 C-1.29289322 3.35008418 -0.62056011 1.68437744 0 0 Z " fill="#E7E1A0" transform="translate(37,42)"/>
<path d="M0 0 C0.598125 0.226875 1.19625 0.45375 1.8125 0.6875 C0.8225 1.0175 -0.1675 1.3475 -1.1875 1.6875 C-1.5175 2.3475 -1.8475 3.0075 -2.1875 3.6875 C-1.5275 4.0175 -0.8675 4.3475 -0.1875 4.6875 C-2.1675 5.3475 -4.1475 6.0075 -6.1875 6.6875 C-5.78066505 4.32785727 -5.28935661 2.82815912 -3.875 0.875 C-2.1875 -0.3125 -2.1875 -0.3125 0 0 Z " fill="#D8B558" transform="translate(67.1875,45.3125)"/>
<path d="M0 0 C4.51720311 -0.36625971 4.51720311 -0.36625971 6.8125 1.375 C8 3 8 3 8 5 C5.07120629 4.37240135 2.63904371 3.41377341 0 2 C0 1.34 0 0.68 0 0 Z " fill="#E1BC5B" transform="translate(7,43)"/>
<path d="M0 0 C0.66 0.33 1.32 0.66 2 1 C1.1875 3.9375 1.1875 3.9375 0 7 C-0.99 7.33 -1.98 7.66 -3 8 C-3.1875 5.125 -3.1875 5.125 -3 2 C-2.01 1.34 -1.02 0.68 0 0 Z " fill="#F1E7AC" transform="translate(32,17)"/>
<path d="M0 0 C2.37948772 0.17625835 3.70225849 0.69719773 5.37890625 2.40234375 C6.62115486 3.90649092 7.81376056 5.45129851 9 7 C8.1646875 6.566875 8.1646875 6.566875 7.3125 6.125 C4.91505355 4.9586747 2.48403061 3.9660119 0 3 C0 2.01 0 1.02 0 0 Z " fill="#F5EFA8" transform="translate(38,3)"/>
<path d="M0 0 C0 0.66 0 1.32 0 2 C1.65 2 3.3 2 5 2 C3.1875 3.0625 3.1875 3.0625 1 4 C0.01 3.67 -0.98 3.34 -2 3 C-2.99 3.33 -3.98 3.66 -5 4 C-5.33 3.01 -5.66 2.02 -6 1 C-3 0 -3 0 0 0 Z " fill="#42371C" transform="translate(33,63)"/>
<path d="M0 0 C0.66 0.33 1.32 0.66 2 1 C2 1.66 2 2.32 2 3 C3.32 3.33 4.64 3.66 6 4 C2.37 4 -1.26 4 -5 4 C-4.34 3.34 -3.68 2.68 -3 2 C-2.01 2 -1.02 2 0 2 C0 1.34 0 0.68 0 0 Z " fill="#D0C377" transform="translate(43,52)"/>
<path d="M0 0 C1.32 0.33 2.64 0.66 4 1 C3.67 2.65 3.34 4.3 3 6 C1.35 6 -0.3 6 -2 6 C-1.34 4.02 -0.68 2.04 0 0 Z " fill="#C4BA86" transform="translate(37,33)"/>
<path d="M0 0 C0.66 0 1.32 0 2 0 C2 2.31 2 4.62 2 7 C1.01 7 0.02 7 -1 7 C-0.67 4.69 -0.34 2.38 0 0 Z " fill="#4C452C" transform="translate(33,18)"/>
<path d="M0 0 C0.99 0.33 1.98 0.66 3 1 C1.37660195 2.70884005 -0.29319053 4.37446717 -2 6 C-2.66 6 -3.32 6 -4 6 C-4 5.01 -4 4.02 -4 3 C-2.1875 1.25 -2.1875 1.25 0 0 Z " fill="#B38529" transform="translate(60,54)"/>
<path d="M0 0 C3.3 0.33 6.6 0.66 10 1 C10 1.33 10 1.66 10 2 C6.7 2.66 3.4 3.32 0 4 C0 2.68 0 1.36 0 0 Z " fill="#F6F0A6" transform="translate(23,49)"/>
<path d="M0 0 C0.99 0 1.98 0 3 0 C2.34 2.31 1.68 4.62 1 7 C0.34 7 -0.32 7 -1 7 C-2 4 -2 4 -1.0625 1.8125 C-0.5365625 0.9153125 -0.5365625 0.9153125 0 0 Z " fill="#FEFEBB" transform="translate(22,41)"/>
<path d="M0 0 C0 4.41236026 -2.0697293 5.78384923 -5 9 C-5.33 9 -5.66 9 -6 9 C-6.3125 6.6875 -6.3125 6.6875 -6 4 C-3.5625 2.25 -3.5625 2.25 -1 1 C-0.67 0.67 -0.34 0.34 0 0 Z " fill="#F8F4B7" transform="translate(59,34)"/>
<path d="M0 0 C0.99 0 1.98 0 3 0 C3 0.66 3 1.32 3 2 C4.32 2.66 5.64 3.32 7 4 C6.67 4.99 6.34 5.98 6 7 C1.125 2.25 1.125 2.25 0 0 Z " fill="#E0C775" transform="translate(43,11)"/>
<path d="M0 0 C0.66 0.33 1.32 0.66 2 1 C1.67 2.65 1.34 4.3 1 6 C0.01 6.33 -0.98 6.66 -2 7 C-2.125 4.625 -2.125 4.625 -2 2 C-1.34 1.34 -0.68 0.68 0 0 Z " fill="#302A19" transform="translate(56,39)"/>
<path d="M0 0 C0.33 0 0.66 0 1 0 C1.33 2.31 1.66 4.62 2 7 C0.68 6.67 -0.64 6.34 -2 6 C-1.125 1.125 -1.125 1.125 0 0 Z " fill="#756128" transform="translate(49,24)"/>
</svg>
