<?xml version="1.0" encoding="UTF-8"?>
<svg version="1.1" xmlns="http://www.w3.org/2000/svg" width="80" height="80">
<path d="M0 0 C2.47120169 1.12660625 3.9452441 2.49315019 5.85731506 4.42486572 C6.59778076 5.16555801 7.33824646 5.90625031 8.10115051 6.66938782 C8.88983521 7.47355637 9.6785199 8.27772491 10.49110413 9.10626221 C11.306698 9.92610092 12.12229187 10.74593964 12.96260071 11.59062195 C15.56776019 14.21258357 18.16229992 16.84478044 20.75672913 19.47735596 C22.52036282 21.25603441 24.28467753 23.03403788 26.04969788 24.81134033 C30.37664316 29.17137536 34.69491311 33.53986122 39.00672913 37.91485596 C37.27874279 41.62330782 35.20732426 43.86599015 32.21766663 46.68829346 C31.276651 47.59579346 30.33563538 48.50329346 29.36610413 49.43829346 C27.8733769 50.86906955 26.37661703 52.29465453 24.86903381 53.70977783 C23.4094719 55.08449258 21.96952149 56.47993558 20.53016663 57.87579346 C19.66311096 58.69869873 18.7960553 59.521604 17.90272522 60.3694458 C15.59335504 63.46981839 15.70417949 65.14002941 16.00672913 68.91485596 C15.67672913 69.24485596 15.34672913 69.57485596 15.00672913 69.91485596 C13.61454163 69.82204346 13.61454163 69.82204346 12.19422913 69.72735596 C8.94857978 69.62210546 8.94857978 69.62210546 6.69422913 71.66485596 C5.05464008 73.85097469 4.3887835 75.24047534 4.00672913 77.91485596 C0.69422913 78.22735596 0.69422913 78.22735596 -2.99327087 77.91485596 C-4.01153646 76.25928567 -5.00614403 74.58917921 -5.99327087 72.91485596 C-8.39043906 70.27258971 -10.97150995 67.82292662 -13.54014587 65.34844971 C-15.0392606 63.87947391 -16.53794595 62.41005981 -18.03623962 60.94024658 C-20.39724484 58.63522091 -22.76193 56.33431982 -25.13438416 54.04107666 C-27.42650779 51.82118879 -29.70294196 49.58616439 -31.97764587 47.34844971 C-32.69523071 46.6629454 -33.41281555 45.9774411 -34.15214539 45.27116394 C-34.80322266 44.62691971 -35.45429993 43.98267548 -36.12510681 43.31890869 C-36.70452026 42.75663071 -37.28393372 42.19435272 -37.88090515 41.61503601 C-38.99327087 39.91485596 -38.99327087 39.91485596 -38.88220215 37.9380188 C-37.80834945 35.49398411 -36.51449455 34.04141812 -34.63853455 32.14019775 C-33.93077377 31.41652512 -33.223013 30.69285248 -32.49380493 29.94725037 C-31.72405838 29.1773024 -30.95431183 28.40735443 -30.16123962 27.61407471 C-29.37308365 26.81830521 -28.58492767 26.02253571 -27.77288818 25.20265198 C-26.10470921 23.52366886 -24.43253566 21.84864659 -22.75669861 20.17730713 C-20.18716222 17.60874488 -17.63968665 15.01960513 -15.09288025 12.42852783 C-13.47113548 10.80157781 -11.84813046 9.17588283 -10.22373962 7.55157471 C-9.46006577 6.77150558 -8.69639191 5.99143646 -7.90957642 5.18772888 C-7.19235916 4.47981705 -6.47514191 3.77190521 -5.7361908 3.0425415 C-5.10855331 2.41284958 -4.48091583 1.78315765 -3.83425903 1.13438416 C-1.99327087 -0.08514404 -1.99327087 -0.08514404 0 0 Z " fill="#E3DB9D" transform="translate(39.99327087402344,1.08514404296875)"/>
<path d="M0 0 C2.47120169 1.12660625 3.9452441 2.49315019 5.85731506 4.42486572 C6.59778076 5.16555801 7.33824646 5.90625031 8.10115051 6.66938782 C8.88983521 7.47355637 9.6785199 8.27772491 10.49110413 9.10626221 C11.306698 9.92610092 12.12229187 10.74593964 12.96260071 11.59062195 C15.56776019 14.21258357 18.16229992 16.84478044 20.75672913 19.47735596 C22.52036282 21.25603441 24.28467753 23.03403788 26.04969788 24.81134033 C30.37664316 29.17137536 34.69491311 33.53986122 39.00672913 37.91485596 C37.27874279 41.62330782 35.20732426 43.86599015 32.21766663 46.68829346 C31.276651 47.59579346 30.33563538 48.50329346 29.36610413 49.43829346 C27.8733769 50.86906955 26.37661703 52.29465453 24.86903381 53.70977783 C23.4094719 55.08449258 21.96952149 56.47993558 20.53016663 57.87579346 C19.66311096 58.69869873 18.7960553 59.521604 17.90272522 60.3694458 C15.59335504 63.46981839 15.70417949 65.14002941 16.00672913 68.91485596 C15.67672913 69.24485596 15.34672913 69.57485596 15.00672913 69.91485596 C13.61454163 69.82204346 13.61454163 69.82204346 12.19422913 69.72735596 C8.94857978 69.62210546 8.94857978 69.62210546 6.69422913 71.66485596 C5.05464008 73.85097469 4.3887835 75.24047534 4.00672913 77.91485596 C0.69422913 78.22735596 0.69422913 78.22735596 -2.99327087 77.91485596 C-4.01153646 76.25928567 -5.00614403 74.58917921 -5.99327087 72.91485596 C-8.39043906 70.27258971 -10.97150995 67.82292662 -13.54014587 65.34844971 C-15.0392606 63.87947391 -16.53794595 62.41005981 -18.03623962 60.94024658 C-20.39724484 58.63522091 -22.76193 56.33431982 -25.13438416 54.04107666 C-27.42650779 51.82118879 -29.70294196 49.58616439 -31.97764587 47.34844971 C-32.69523071 46.6629454 -33.41281555 45.9774411 -34.15214539 45.27116394 C-34.80322266 44.62691971 -35.45429993 43.98267548 -36.12510681 43.31890869 C-36.70452026 42.75663071 -37.28393372 42.19435272 -37.88090515 41.61503601 C-38.99327087 39.91485596 -38.99327087 39.91485596 -38.88220215 37.9380188 C-37.80834945 35.49398411 -36.51449455 34.04141812 -34.63853455 32.14019775 C-33.93077377 31.41652512 -33.223013 30.69285248 -32.49380493 29.94725037 C-31.72405838 29.1773024 -30.95431183 28.40735443 -30.16123962 27.61407471 C-29.37308365 26.81830521 -28.58492767 26.02253571 -27.77288818 25.20265198 C-26.10470921 23.52366886 -24.43253566 21.84864659 -22.75669861 20.17730713 C-20.18716222 17.60874488 -17.63968665 15.01960513 -15.09288025 12.42852783 C-13.47113548 10.80157781 -11.84813046 9.17588283 -10.22373962 7.55157471 C-9.46006577 6.77150558 -8.69639191 5.99143646 -7.90957642 5.18772888 C-7.19235916 4.47981705 -6.47514191 3.77190521 -5.7361908 3.0425415 C-5.10855331 2.41284958 -4.48091583 1.78315765 -3.83425903 1.13438416 C-1.99327087 -0.08514404 -1.99327087 -0.08514404 0 0 Z M-2.51818848 2.31951904 C-3.5008091 3.30547058 -3.5008091 3.30547058 -4.50328064 4.31134033 C-5.24397293 5.05210815 -5.98466522 5.79287598 -6.74780273 6.55609131 C-7.55197128 7.36542114 -8.35613983 8.17475098 -9.18467712 9.00860596 C-10.00451584 9.82985962 -10.82435455 10.65111328 -11.66903687 11.49725342 C-14.30029175 14.13412887 -16.92805805 16.77445118 -19.55577087 19.41485596 C-21.33353783 21.19763526 -23.11152961 22.98019041 -24.88975525 24.76251221 C-29.26021085 29.14402409 -33.62780327 33.52837464 -37.99327087 37.91485596 C-33.75116952 42.98196895 -29.31609998 47.72708966 -24.62608337 52.37969971 C-23.94649567 53.05787247 -23.26690796 53.73604523 -22.56672668 54.43476868 C-20.41960086 56.57634737 -18.26900461 58.71440125 -16.11827087 60.85235596 C-14.65189315 62.31371184 -13.18574507 63.77529821 -11.71983337 65.23712158 C-8.14696087 68.7990353 -4.57097404 72.35779461 -0.99327087 75.91485596 C2.6275604 74.21631559 4.94928267 72.20380814 7.77235413 69.34454346 C8.66180725 68.44864502 9.55126038 67.55274658 10.46766663 66.62969971 C11.38805725 65.69255127 12.30844788 64.75540283 13.25672913 63.78985596 C14.20157769 62.83496959 15.14688546 61.88053737 16.09266663 60.92657471 C18.40191251 58.59376509 20.70636115 56.25641509 23.00672913 53.91485596 C19.22474008 52.65419294 17.64309705 53.49192938 14.00672913 54.91485596 C13.67672913 55.24485596 13.34672913 55.57485596 13.00672913 55.91485596 C10.00672913 56.03985596 10.00672913 56.03985596 7.00672913 55.91485596 C6.67672913 55.58485596 6.34672913 55.25485596 6.00672913 54.91485596 C3.926292 54.78850172 1.84096701 54.7390389 -0.24327087 54.72735596 C-1.38280212 54.71317627 -2.52233337 54.69899658 -3.69639587 54.68438721 C-6.90854133 54.90893292 -9.10623713 55.5418869 -11.99327087 56.91485596 C-12.48827087 56.29610596 -12.98327087 55.67735596 -13.49327087 55.03985596 C-16.87548525 52.16497374 -19.66584173 51.78034179 -23.99327087 50.91485596 C-20.99327087 50.91485596 -20.99327087 50.91485596 -18.18077087 51.53985596 C-14.46508355 51.97699564 -12.3459208 51.55219662 -8.99327087 49.91485596 C-8.66327087 48.59485596 -8.33327087 47.27485596 -7.99327087 45.91485596 C-12.61327087 45.91485596 -17.23327087 45.91485596 -21.99327087 45.91485596 C-20.91905212 43.89662679 -19.84483337 41.87839762 -18.77061462 39.86016846 C-18.51409119 39.21821533 -18.25756775 38.57626221 -17.99327087 37.91485596 C-18.32327087 37.25485596 -18.65327087 36.59485596 -18.99327087 35.91485596 C-20.31327087 35.91485596 -21.63327087 35.91485596 -22.99327087 35.91485596 C-23.48827087 34.42985596 -23.48827087 34.42985596 -23.99327087 32.91485596 C-25.97327087 34.89485596 -27.95327087 36.87485596 -29.99327087 38.91485596 C-24.16698183 31.75684371 -17.55497238 25.3889383 -10.99327087 18.91485596 C-8.54795837 19.75860596 -8.54795837 19.75860596 -5.99327087 20.91485596 C-5.11827087 23.41485596 -5.11827087 23.41485596 -4.99327087 25.91485596 C-5.32327087 26.57485596 -5.65327087 27.23485596 -5.99327087 27.91485596 C-5.33327087 27.91485596 -4.67327087 27.91485596 -3.99327087 27.91485596 C-3.99327087 28.57485596 -3.99327087 29.23485596 -3.99327087 29.91485596 C-11.25480934 31.26870211 -11.25480934 31.26870211 -14.99327087 29.47735596 C-15.65327087 28.96173096 -16.31327087 28.44610596 -16.99327087 27.91485596 C-19.55420027 29.71343264 -19.55420027 29.71343264 -21.99327087 31.91485596 C-21.99327087 32.90485596 -21.99327087 33.89485596 -21.99327087 34.91485596 C-21.33327087 34.91485596 -20.67327087 34.91485596 -19.99327087 34.91485596 C-19.33327087 33.92485596 -18.67327087 32.93485596 -17.99327087 31.91485596 C-15.36827087 31.72735596 -15.36827087 31.72735596 -12.99327087 31.91485596 C-12.99327087 32.90485596 -12.99327087 33.89485596 -12.99327087 34.91485596 C-10.68327087 34.91485596 -8.37327087 34.91485596 -5.99327087 34.91485596 C-5.49827087 33.92485596 -5.49827087 33.92485596 -4.99327087 32.91485596 C-4.33327087 32.91485596 -3.67327087 32.91485596 -2.99327087 32.91485596 C-2.99327087 50.91485596 -2.99327087 50.91485596 -3.99327087 53.91485596 C-1.68327087 53.91485596 0.62672913 53.91485596 3.00672913 53.91485596 C2.67672913 46.65485596 2.34672913 39.39485596 2.00672913 31.91485596 C3.32672913 32.90485596 4.64672913 33.89485596 6.00672913 34.91485596 C9.04903736 35.41496119 9.04903736 35.41496119 12.00672913 34.91485596 C13.88563347 33.53979497 13.88563347 33.53979497 15.00672913 31.91485596 C14.34672913 33.23485596 13.68672913 34.55485596 13.00672913 35.91485596 C10.03672913 35.91485596 7.06672913 35.91485596 4.00672913 35.91485596 C3.97951737 37.81060847 3.96023776 39.70647574 3.94422913 41.60235596 C3.93262756 42.65809814 3.921026 43.71384033 3.90907288 44.80157471 C3.99807488 47.63895858 4.35733074 50.15874786 5.00672913 52.91485596 C5.99672913 52.58485596 6.98672913 52.25485596 8.00672913 51.91485596 C8.00672913 50.92485596 8.00672913 49.93485596 8.00672913 48.91485596 C8.99672913 49.45110596 9.98672913 49.98735596 11.00672913 50.53985596 C15.51724451 52.52300689 18.44688018 51.43480561 23.00672913 49.91485596 C23.19235413 48.36798096 23.19235413 48.36798096 23.38172913 46.78985596 C23.94562726 43.2936875 24.79354971 40.23087969 26.00672913 36.91485596 C22.99641169 35.98061951 22.14022645 35.87035685 19.00672913 36.91485596 C18.51172913 34.93485596 18.51172913 34.93485596 18.00672913 32.91485596 C18.33672913 33.57485596 18.66672913 34.23485596 19.00672913 34.91485596 C19.66672913 34.91485596 20.32672913 34.91485596 21.00672913 34.91485596 C20.67672913 33.26485596 20.34672913 31.61485596 20.00672913 29.91485596 C19.01672913 29.91485596 18.02672913 29.91485596 17.00672913 29.91485596 C17.00672913 29.25485596 17.00672913 28.59485596 17.00672913 27.91485596 C16.34672913 27.91485596 15.68672913 27.91485596 15.00672913 27.91485596 C15.00672913 28.57485596 15.00672913 29.23485596 15.00672913 29.91485596 C11.04672913 30.40985596 11.04672913 30.40985596 7.00672913 30.91485596 C4.9512526 26.56208213 4.9512526 26.56208213 5.19422913 23.72735596 C6.00672913 21.91485596 6.00672913 21.91485596 9.00672913 19.91485596 C9.33672913 19.25485596 9.66672913 18.59485596 10.00672913 17.91485596 C13.14913404 20.95906071 16.07217741 24.11282336 18.94422913 27.41485596 C22.07754906 30.97625755 25.26141291 34.01223589 29.00672913 36.91485596 C28.57525671 39.41739595 28.36041851 40.61558032 26.38172913 42.28985596 C25.92797913 42.82610596 25.47422913 43.36235596 25.00672913 43.91485596 C25.23956061 47.06407505 25.23956061 47.06407505 26.00672913 49.91485596 C29.8130841 46.70725345 33.55236479 43.50739486 37.00672913 39.91485596 C35.61743712 36.78484265 34.0013936 34.66098978 31.58265686 32.24786377 C30.8853093 31.54743958 30.18796173 30.84701538 29.46948242 30.12536621 C28.71735977 29.38042908 27.96523712 28.63549194 27.19032288 27.86798096 C26.41866287 27.09677917 25.64700287 26.32557739 24.85195923 25.53100586 C23.22272774 23.90479229 21.59106967 22.28100669 19.95716858 20.65948486 C17.44510175 18.16572222 14.94117668 15.66400228 12.43836975 13.16094971 C10.85615963 11.583653 9.27349308 10.006814 7.69032288 8.43048096 C6.55910255 7.30092987 6.55910255 7.30092987 5.4050293 6.14855957 C4.71083389 5.46074402 4.01663849 4.77292847 3.30140686 4.06427002 C2.68788864 3.4545636 2.07437042 2.84485718 1.44226074 2.2166748 C-0.54608645 0.41353246 -0.53012865 0.48823698 -2.51818848 2.31951904 Z " fill="#66501C" transform="translate(39.99327087402344,1.08514404296875)"/>
<path d="M0 0 C0.99 0.33 1.98 0.66 3 1 C0.69 3.31 -1.62 5.62 -4 8 C-3.21625 7.360625 -2.4325 6.72125 -1.625 6.0625 C1 4 1 4 3 3 C3 3.99 3 4.98 3 6 C4.65 6 6.3 6 8 6 C6.8741386 9.53842155 5.66905241 12.66189518 4 16 C8.62 16 13.24 16 18 16 C17.67 17.32 17.34 18.64 17 20 C13.239792 22.01767258 10.65570205 22.12730602 6.625 21.125 C5.42875 20.75375 4.2325 20.3825 3 20 C4.21120811 21.34056044 4.21120811 21.34056044 7.375 22.375 C10.39644506 23.72944089 11.97832566 24.50263759 14 27 C14.68578125 26.67386719 15.3715625 26.34773438 16.078125 26.01171875 C19.46457775 24.83913685 22.17450995 24.76800861 25.75 24.8125 C27.47476563 24.82216797 27.47476563 24.82216797 29.234375 24.83203125 C32 25 32 25 33 26 C35.95817107 26.25005386 35.95817107 26.25005386 39 26 C39.66 25.34 40.32 24.68 41 24 C43.65537372 23.43479997 46.29144713 23.26211802 49 23 C44.47008204 28.43733055 39.65705784 33.46458931 34.625 38.4375 C33.52091797 39.53481445 33.52091797 39.53481445 32.39453125 40.65429688 C30.59863926 42.43852723 28.80044015 44.22036124 27 46 C23.95418514 44.63886987 21.86160974 43.10669904 19.51660156 40.74365234 C18.85621887 40.08311859 18.19583618 39.42258484 17.51544189 38.74203491 C16.81425232 38.03052277 16.11306274 37.31901062 15.390625 36.5859375 C14.66381531 35.85629791 13.93700562 35.12665833 13.18817139 34.37490845 C10.87070802 32.0462612 8.5603005 29.71075174 6.25 27.375 C4.67884556 25.79381347 3.10723629 24.21307875 1.53515625 22.6328125 C-2.31518653 18.7604331 -6.15976117 14.88239829 -10 11 C-9.20762939 10.21214111 -8.41525879 9.42428223 -7.59887695 8.61254883 C-5.68115112 6.68473444 -3.89922103 4.79047155 -2.1875 2.6875 C-1.1046875 1.3571875 -1.1046875 1.3571875 0 0 Z " fill="#B6872E" transform="translate(14,31)"/>
<path d="M0 0 C5.06711299 4.24210136 9.81223371 8.67717089 14.46484375 13.3671875 C15.14301651 14.04677521 15.82118927 14.72636292 16.51991272 15.42654419 C18.66149141 17.57367002 20.79954529 19.72426627 22.9375 21.875 C24.39885589 23.34137773 25.86044226 24.8075258 27.32226562 26.2734375 C30.88417935 29.84631 34.44293865 33.42229684 38 37 C36.39464713 40.41059403 34.59481099 42.61792484 31.875 45.25 C31.15054688 45.95640625 30.42609375 46.6628125 29.6796875 47.390625 C29.12539062 47.92171875 28.57109375 48.4528125 28 49 C26.953125 47.1328125 26.953125 47.1328125 26 45 C26.94226655 42.33024478 27.98615798 41.01384202 30 39 C29.79750352 36.37820341 29.24043685 35.24630116 27.3984375 33.359375 C26.73070312 32.82828125 26.06296875 32.2971875 25.375 31.75 C21.69986684 28.69286777 18.66567224 25.41003743 15.58203125 21.76953125 C13.95327059 19.84933743 13.95327059 19.84933743 11.5 18 C7.85995169 15.08796136 4.99537272 11.5564656 2 8 C-1.56325174 9.50419262 -3.74901634 11.5669507 -6.40625 14.3515625 C-7.23253906 15.20234375 -8.05882813 16.053125 -8.91015625 16.9296875 C-10.64062595 18.73062882 -12.36717889 20.53534164 -14.08984375 22.34375 C-14.91613281 23.19195313 -15.74242188 24.04015625 -16.59375 24.9140625 C-17.34333984 25.6973291 -18.09292969 26.4805957 -18.86523438 27.28759766 C-21 29 -21 29 -25 29 C-25.268125 29.598125 -25.53625 30.19625 -25.8125 30.8125 C-26.99917406 32.99847854 -28.09599113 34.41332594 -30 36 C-30.66 36 -31.32 36 -32 36 C-32.33 36.99 -32.66 37.98 -33 39 C-34.32 38.67 -35.64 38.34 -37 38 C-32.75789864 32.93288701 -28.32282911 28.18776629 -23.6328125 23.53515625 C-22.95322479 22.85698349 -22.27363708 22.17881073 -21.57345581 21.48008728 C-19.42632998 19.33850859 -17.27573373 17.20045471 -15.125 15.0625 C-13.65862227 13.60114411 -12.1924742 12.13955774 -10.7265625 10.67773438 C-7.15369 7.11582065 -3.57770316 3.55706135 0 0 Z " fill="#E0C36A" transform="translate(39,2)"/>
<path d="M0 0 C2.47120169 1.12660625 3.9452441 2.49315019 5.85731506 4.42486572 C6.59778076 5.16555801 7.33824646 5.90625031 8.10115051 6.66938782 C8.88983521 7.47355637 9.6785199 8.27772491 10.49110413 9.10626221 C11.306698 9.92610092 12.12229187 10.74593964 12.96260071 11.59062195 C15.56776019 14.21258357 18.16229992 16.84478044 20.75672913 19.47735596 C22.52036282 21.25603441 24.28467753 23.03403788 26.04969788 24.81134033 C30.37664316 29.17137536 34.69491311 33.53986122 39.00672913 37.91485596 C37.27874279 41.62330782 35.20732426 43.86599015 32.21766663 46.68829346 C31.276651 47.59579346 30.33563538 48.50329346 29.36610413 49.43829346 C27.8733769 50.86906955 26.37661703 52.29465453 24.86903381 53.70977783 C23.4094719 55.08449258 21.96952149 56.47993558 20.53016663 57.87579346 C19.66311096 58.69869873 18.7960553 59.521604 17.90272522 60.3694458 C15.59335504 63.46981839 15.70417949 65.14002941 16.00672913 68.91485596 C15.67672913 69.24485596 15.34672913 69.57485596 15.00672913 69.91485596 C13.61454163 69.82204346 13.61454163 69.82204346 12.19422913 69.72735596 C8.94857978 69.62210546 8.94857978 69.62210546 6.69422913 71.66485596 C5.05464008 73.85097469 4.3887835 75.24047534 4.00672913 77.91485596 C0.69422913 78.22735596 0.69422913 78.22735596 -2.99327087 77.91485596 C-4.01153646 76.25928567 -5.00614403 74.58917921 -5.99327087 72.91485596 C-8.39043906 70.27258971 -10.97150995 67.82292662 -13.54014587 65.34844971 C-15.0392606 63.87947391 -16.53794595 62.41005981 -18.03623962 60.94024658 C-20.39724484 58.63522091 -22.76193 56.33431982 -25.13438416 54.04107666 C-27.42650779 51.82118879 -29.70294196 49.58616439 -31.97764587 47.34844971 C-32.69523071 46.6629454 -33.41281555 45.9774411 -34.15214539 45.27116394 C-34.80322266 44.62691971 -35.45429993 43.98267548 -36.12510681 43.31890869 C-36.70452026 42.75663071 -37.28393372 42.19435272 -37.88090515 41.61503601 C-38.99327087 39.91485596 -38.99327087 39.91485596 -38.88220215 37.9380188 C-37.80834945 35.49398411 -36.51449455 34.04141812 -34.63853455 32.14019775 C-33.93077377 31.41652512 -33.223013 30.69285248 -32.49380493 29.94725037 C-31.72405838 29.1773024 -30.95431183 28.40735443 -30.16123962 27.61407471 C-29.37308365 26.81830521 -28.58492767 26.02253571 -27.77288818 25.20265198 C-26.10470921 23.52366886 -24.43253566 21.84864659 -22.75669861 20.17730713 C-20.18716222 17.60874488 -17.63968665 15.01960513 -15.09288025 12.42852783 C-13.47113548 10.80157781 -11.84813046 9.17588283 -10.22373962 7.55157471 C-9.46006577 6.77150558 -8.69639191 5.99143646 -7.90957642 5.18772888 C-7.19235916 4.47981705 -6.47514191 3.77190521 -5.7361908 3.0425415 C-5.10855331 2.41284958 -4.48091583 1.78315765 -3.83425903 1.13438416 C-1.99327087 -0.08514404 -1.99327087 -0.08514404 0 0 Z M-2.51818848 2.31951904 C-3.5008091 3.30547058 -3.5008091 3.30547058 -4.50328064 4.31134033 C-5.24397293 5.05210815 -5.98466522 5.79287598 -6.74780273 6.55609131 C-7.55197128 7.36542114 -8.35613983 8.17475098 -9.18467712 9.00860596 C-10.00451584 9.82985962 -10.82435455 10.65111328 -11.66903687 11.49725342 C-14.30029175 14.13412887 -16.92805805 16.77445118 -19.55577087 19.41485596 C-21.33353783 21.19763526 -23.11152961 22.98019041 -24.88975525 24.76251221 C-29.26021085 29.14402409 -33.62780327 33.52837464 -37.99327087 37.91485596 C-33.75116952 42.98196895 -29.31609998 47.72708966 -24.62608337 52.37969971 C-23.94649567 53.05787247 -23.26690796 53.73604523 -22.56672668 54.43476868 C-20.41960086 56.57634737 -18.26900461 58.71440125 -16.11827087 60.85235596 C-14.65189315 62.31371184 -13.18574507 63.77529821 -11.71983337 65.23712158 C-8.14696087 68.7990353 -4.57097404 72.35779461 -0.99327087 75.91485596 C2.09852048 74.53870235 4.20311666 72.9632715 6.58192444 70.56671143 C7.26232788 69.88615692 7.94273132 69.20560242 8.64375305 68.50442505 C9.36681641 67.77103912 10.08987976 67.0376532 10.83485413 66.28204346 C11.58385986 65.53020782 12.3328656 64.77837219 13.10456848 64.00375366 C15.49335933 61.60377695 17.8750981 59.19693587 20.25672913 56.78985596 C21.87606082 55.16049243 23.49584714 53.53158061 25.11610413 51.90313721 C29.08493417 47.9122679 33.04799811 43.91574181 37.00672913 39.91485596 C35.61743712 36.78484265 34.0013936 34.66098978 31.58265686 32.24786377 C30.8853093 31.54743958 30.18796173 30.84701538 29.46948242 30.12536621 C28.71735977 29.38042908 27.96523712 28.63549194 27.19032288 27.86798096 C26.41866287 27.09677917 25.64700287 26.32557739 24.85195923 25.53100586 C23.22272774 23.90479229 21.59106967 22.28100669 19.95716858 20.65948486 C17.44510175 18.16572222 14.94117668 15.66400228 12.43836975 13.16094971 C10.85615963 11.583653 9.27349308 10.006814 7.69032288 8.43048096 C6.55910255 7.30092987 6.55910255 7.30092987 5.4050293 6.14855957 C4.71083389 5.46074402 4.01663849 4.77292847 3.30140686 4.06427002 C2.68788864 3.4545636 2.07437042 2.84485718 1.44226074 2.2166748 C-0.54608645 0.41353246 -0.53012865 0.48823698 -2.51818848 2.31951904 Z " fill="#252219" transform="translate(39.99327087402344,1.08514404296875)"/>
<path d="M0 0 C5.78488372 3.47093023 5.78488372 3.47093023 7 8 C7 9.32 7 10.64 7 12 C3.71662309 14.18891794 2.80441099 14.45290607 -1 14 C-3.8125 12.5 -3.8125 12.5 -6 11 C-9.37088267 13.27415287 -9.37088267 13.27415287 -11 17 C-10.34 17 -9.68 17 -9 17 C-8.34 15.68 -7.68 14.36 -7 13 C-6.01 13.33 -5.02 13.66 -4 14 C-2.8125 16.5625 -2.8125 16.5625 -2 19 C-1.34 18.67 -0.68 18.34 0 18 C2.3329866 17.95977609 4.66706666 17.95679753 7 18 C7 21.63 7 25.26 7 29 C6.01 28.67 5.02 28.34 4 28 C2.64560332 25.29120665 2.93498549 22.99066732 3 20 C2.01 20 1.02 20 0 20 C0.99 22.64 1.98 25.28 3 28 C-1.62 28 -6.24 28 -11 28 C-10 25 -9 22 -8 19 C-8.639375 18.87625 -9.27875 18.7525 -9.9375 18.625 C-10.9584375 18.315625 -10.9584375 18.315625 -12 18 C-12.33 17.34 -12.66 16.68 -13 16 C-14.65 17.98 -16.3 19.96 -18 22 C-18.66 21.34 -19.32 20.68 -20 20 C-13.4 13.4 -6.8 6.8 0 0 Z " fill="#715A23" transform="translate(29,19)"/>
<path d="M0 0 C1.32 0.33 2.64 0.66 4 1 C4 1.99 4 2.98 4 4 C4.66 4.66 5.32 5.32 6 6 C7.34262065 5.70630173 8.67696283 5.3721042 10 5 C10.66 5.33 11.32 5.66 12 6 C11.690625 6.845625 11.38125 7.69125 11.0625 8.5625 C9.98461179 12.0497854 9.43418696 15.38177535 9 19 C1.36607143 21.54464286 1.36607143 21.54464286 -3 19.625 C-3.99 19.08875 -4.98 18.5525 -6 18 C-6.33 19.32 -6.66 20.64 -7 22 C-7.66 22 -8.32 22 -9 22 C-9.90413673 18.16275828 -10.10576898 14.62497726 -10.0625 10.6875 C-10.05347656 9.61886719 -10.04445312 8.55023438 -10.03515625 7.44921875 C-10.02355469 6.64097656 -10.01195312 5.83273438 -10 5 C-7.03 5 -4.06 5 -1 5 C-0.67 3.35 -0.34 1.7 0 0 Z " fill="#755D22" transform="translate(54,32)"/>
<path d="M0 0 C1.0828125 0.7425 1.0828125 0.7425 2.1875 1.5 C5.32573474 3.17372519 6.51458343 3.4863372 10 3 C12.07929815 2.25243308 14.10859449 1.4446814 16.1328125 0.55859375 C18 0 18 0 21 1 C21.99 1.66 22.98 2.32 24 3 C26.06910593 3.02749478 26.06910593 3.02749478 28.1875 2.625 C29.445625 2.41875 30.70375 2.2125 32 2 C32 1.34 32 0.68 32 0 C32.66 0 33.32 0 34 0 C34 0.66 34 1.32 34 2 C35.32 2.33 36.64 2.66 38 3 C38 4.32 38 5.64 38 7 C37.34 7 36.68 7 36 7 C35.505 5.02 35.505 5.02 35 3 C31.27385847 4.11854586 31.27385847 4.11854586 29 7 C24.06071112 7.3367697 23.21507278 7.16130459 19 4 C19.33 11.26 19.66 18.52 20 26 C17.69 26 15.38 26 13 26 C13.33 25.01 13.66 24.02 14 23 C14 21.68 14 20.36 14 19 C14 14.33333333 14 9.66666667 14 5 C13.34 5 12.68 5 12 5 C11.67 5.66 11.34 6.32 11 7 C8.69 7 6.38 7 4 7 C4 6.01 4 5.02 4 4 C1.58380177 3.74969023 1.58380177 3.74969023 -1 4 C-1.99 5.485 -1.99 5.485 -3 7 C-3.66 7 -4.32 7 -5 7 C-4.60196439 4.11424181 -4.20990931 3.17810487 -1.9375 1.25 C-1.298125 0.8375 -0.65875 0.425 0 0 Z " fill="#FDFAC2" transform="translate(23,29)"/>
<path d="M0 0 C0.99 0.33 1.98 0.66 3 1 C3 1.66 3 2.32 3 3 C3.56203125 3.22429688 4.1240625 3.44859375 4.703125 3.6796875 C7.67275417 5.38671923 9.50344167 7.54806544 11.75 10.125 C12.54921875 11.03507812 13.3484375 11.94515625 14.171875 12.8828125 C14.77515625 13.58148438 15.3784375 14.28015625 16 15 C15.1875 17.4375 15.1875 17.4375 14 20 C13.01 20.33 12.02 20.66 11 21 C10.01 19.02 9.02 17.04 8 15 C8.99 15.33 9.98 15.66 11 16 C11 16.66 11 17.32 11 18 C11.66 18 12.32 18 13 18 C12.73323796 16.01508358 12.73323796 16.01508358 12 14 C11.01 13.67 10.02 13.34 9 13 C9 12.34 9 11.68 9 11 C8.34 11 7.68 11 7 11 C7 11.66 7 12.32 7 13 C4.60570412 14.50751963 3.23612509 15.00562203 0.375 14.9375 C-2 14 -2 14 -3.375 11.6875 C-4.02819402 8.8787657 -4.24917007 7.58756658 -3 5 C-0.9375 3.75 -0.9375 3.75 1 3 C0.67 2.01 0.34 1.02 0 0 Z " fill="#59461B" transform="translate(48,18)"/>
<path d="M0 0 C0.33 0.99 0.66 1.98 1 3 C2.65 3 4.3 3 6 3 C4.8741386 6.53842155 3.66905241 9.66189518 2 13 C6.62 13 11.24 13 16 13 C15.67 14.32 15.34 15.64 15 17 C10.60330218 19.35920371 7.36615558 19.07908494 2.76953125 17.69921875 C0.54365157 16.81967689 -0.7343232 16.05672481 -2 14 C-2 12.68 -2 11.36 -2 10 C-2.99 9.67 -3.98 9.34 -5 9 C-4.5206753 4.68607774 -3.2542015 2.83430453 0 0 Z " fill="#5B4B24" transform="translate(16,34)"/>
<path d="M0 0 C0.33 0.33 0.66 0.66 1 1 C3.32817964 1.36760731 5.6618385 1.70241581 8 2 C4.66666667 5.33333333 1.33333333 8.66666667 -2 12 C-6.92980953 9.99155908 -10.09403383 6.35894926 -13 2 C-8.50492881 0.24582588 -4.8215583 -0.28362108 0 0 Z " fill="#5A4613" transform="translate(43,58)"/>
<path d="M0 0 C-7.26 7.26 -14.52 14.52 -22 22 C-25.76687864 20.11656068 -26.79421646 19.30867531 -29 16 C-27.9275 16.2475 -26.855 16.495 -25.75 16.75 C-21.98087896 17.44165076 -21.98087896 17.44165076 -19.75 15.0625 C-19.1725 14.381875 -18.595 13.70125 -18 13 C-17.01 13 -16.02 13 -15 13 C-14.7834375 12.1028125 -14.7834375 12.1028125 -14.5625 11.1875 C-14.1127561 9.43849596 -13.57107659 7.71322977 -13 6 C-15.97 5.505 -15.97 5.505 -19 5 C-19 4.67 -19 4.34 -19 4 C-18.37351562 3.87882812 -17.74703125 3.75765625 -17.1015625 3.6328125 C-16.28429688 3.46523438 -15.46703125 3.29765625 -14.625 3.125 C-13.81289063 2.96257813 -13.00078125 2.80015625 -12.1640625 2.6328125 C-9.81326077 2.13341068 -9.81326077 2.13341068 -8 0 C-4.69164744 -0.93312508 -3.32320026 -1.10773342 0 0 Z " fill="#BA8626" transform="translate(63,55)"/>
<path d="M0 0 C2.3125 0.1875 2.3125 0.1875 5 1 C6.04349839 2.63978318 7.03182008 4.31464976 8 6 C12.06949913 10.74169319 15.65318934 14.73063787 22 16 C20.52278578 19.45201639 18.56205999 21.64961936 15.875 24.25 C15.15054688 24.95640625 14.42609375 25.6628125 13.6796875 26.390625 C13.12539062 26.92171875 12.57109375 27.4528125 12 28 C10.953125 26.1328125 10.953125 26.1328125 10 24 C10.94226655 21.33024478 11.98615798 20.01384202 14 18 C13.8039981 15.3267518 13.22715034 14.22768107 11.328125 12.32421875 C10.64234375 11.78410156 9.9565625 11.24398437 9.25 10.6875 C5.37483198 7.46748628 2.74860775 4.20880562 0 0 Z " fill="#D4B462" transform="translate(55,23)"/>
<path d="M0 0 C1.98 1.65 3.96 3.3 6 5 C5.67 5.66 5.34 6.32 5 7 C3.7625 6.7834375 3.7625 6.7834375 2.5 6.5625 C-4.28551194 7.41068899 -8.57541897 13.5597481 -13.1875 18.25 C-15.91387009 21.00850805 -18.40002572 23.41177605 -22 25 C-22.66 24.67 -23.32 24.34 -24 24 C-16.08 16.08 -8.16 8.16 0 0 Z " fill="#E5DE9C" transform="translate(39,2)"/>
<path d="M0 0 C0.66 0.33 1.32 0.66 2 1 C1.33355469 1.63502441 0.66710937 2.27004883 -0.01953125 2.92431641 C-2.49172702 5.29408029 -4.94969471 7.67691654 -7.39941406 10.06982422 C-8.46111686 11.10140549 -9.52814936 12.12753138 -10.60058594 13.14794922 C-12.14400785 14.6183521 -13.66700767 16.10750506 -15.1875 17.6015625 C-16.10917969 18.49182129 -17.03085937 19.38208008 -17.98046875 20.29931641 C-20.37825619 23.50583535 -20.34146154 25.09488349 -20 29 C-20.33 29.33 -20.66 29.66 -21 30 C-22.3921875 29.9071875 -22.3921875 29.9071875 -23.8125 29.8125 C-27.05814934 29.7072495 -27.05814934 29.7072495 -29.3125 31.75 C-30.95208905 33.93611873 -31.61794563 35.32561938 -32 38 C-33.32 37.67 -34.64 37.34 -36 37 C-31.82222235 32.01407125 -27.46872723 27.33295716 -22.8515625 22.75390625 C-22.19417084 22.09792953 -21.53677917 21.44195282 -20.85946655 20.76609802 C-18.78367138 18.69584732 -16.70440573 16.62912349 -14.625 14.5625 C-13.2067992 13.14932138 -11.78882824 11.73591206 -10.37109375 10.32226562 C-6.91671223 6.87883935 -3.4592163 3.43856901 0 0 Z " fill="#231C10" transform="translate(76,41)"/>
<path d="M0 0 C6.18134869 5.10448822 11.79822878 10.68294942 17.4375 16.375 C18.35982422 17.30183594 19.28214844 18.22867187 20.23242188 19.18359375 C22.49058625 21.45345846 24.74636942 23.72563538 27 26 C25.17480469 26.63769531 25.17480469 26.63769531 23 27 C20.8515095 25.30761363 19.11004956 23.71745399 17.25 21.75 C16.49009766 20.99396484 16.49009766 20.99396484 15.71484375 20.22265625 C12 16.40768194 12 16.40768194 12 13 C10.35 12.67 8.7 12.34 7 12 C7 11.01 7 10.02 7 9 C6.401875 8.731875 5.80375 8.46375 5.1875 8.1875 C2.95762543 6.97699666 1.54509308 6.008621 0 4 C0 2.68 0 1.36 0 0 Z " fill="#F9EEA2" transform="translate(48,11)"/>
<path d="M0 0 C3.465 1.98 3.465 1.98 7 4 C7 6 7 8 7 10 C3.75366476 12.1642235 2.75698557 12.37569856 -1 12 C-4 10 -4 10 -5 7.6875 C-5 5 -5 5 -2.5625 2.1875 C-1.716875 1.465625 -0.87125 0.74375 0 0 Z " fill="#8B6B1D" transform="translate(29,21)"/>
<path d="M0 0 C3.81936528 1.55603771 6.26044438 3.95604931 9 7 C9 7.66 9 8.32 9 9 C7.80503906 8.98259766 7.80503906 8.98259766 6.5859375 8.96484375 C-1.25478989 8.88148443 -1.25478989 8.88148443 -9 10 C-8.06409496 8.8944811 -7.12620142 7.79064547 -6.1875 6.6875 C-5.66542969 6.07261719 -5.14335938 5.45773438 -4.60546875 4.82421875 C-3.12827531 3.14575321 -1.59960869 1.56117966 0 0 Z " fill="#594418" transform="translate(39,9)"/>
<path d="M0 0 C2.475 1.485 2.475 1.485 5 3 C5 3.66 5 4.32 5 5 C3.35 4.34 1.7 3.68 0 3 C-2.98581698 5.55404941 -2.98581698 5.55404941 -4.4375 9.0625 C-5.28805578 11.99219212 -7.4424996 12.52943727 -10 14 C-10.33 14.99 -10.66 15.98 -11 17 C-10.34 17 -9.68 17 -9 17 C-8.67 16.01 -8.34 15.02 -8 14 C-7.34 14 -6.68 14 -6 14 C-6.66 15.65 -7.32 17.3 -8 19 C-9.9375 18.625 -9.9375 18.625 -12 18 C-12.33 17.34 -12.66 16.68 -13 16 C-14.65 17.98 -16.3 19.96 -18 22 C-18.66 21.34 -19.32 20.68 -20 20 C-13.4 13.4 -6.8 6.8 0 0 Z " fill="#3A2E11" transform="translate(29,19)"/>
<path d="M0 0 C0.763125 0.0825 1.52625 0.165 2.3125 0.25 C2.3125 0.91 2.3125 1.57 2.3125 2.25 C2.9725 2.25 3.6325 2.25 4.3125 2.25 C4.3125 4.23 4.3125 6.21 4.3125 8.25 C1.74036866 9.86949011 0.63580841 10.29408751 -2.4375 9.875 C-3.55125 9.565625 -3.55125 9.565625 -4.6875 9.25 C-5.60804342 6.23731243 -5.96611489 4.82270838 -4.5625 1.9375 C-2.6875 0.25 -2.6875 0.25 0 0 Z " fill="#896817" transform="translate(50.6875,22.75)"/>
<path d="M0 0 C0.33 0.66 0.66 1.32 1 2 C5.62 2 10.24 2 15 2 C14.67 3.32 14.34 4.64 14 6 C10.239792 8.01767258 7.65570205 8.12730602 3.625 7.125 C2.42875 6.75375 1.2325 6.3825 0 6 C-0.38218767 4.34385343 -0.71395102 2.67542976 -1 1 C-0.67 0.67 -0.34 0.34 0 0 Z " fill="#F4EFA3" transform="translate(17,45)"/>
<path d="M0 0 C0.66 0.33 1.32 0.66 2 1 C1.67 2.65 1.34 4.3 1 6 C-6.63392857 8.54464286 -6.63392857 8.54464286 -11 6.625 C-11.99 6.08875 -12.98 5.5525 -14 5 C-14 4.01 -14 3.02 -14 2 C-9.38 2 -4.76 2 0 2 C0 1.34 0 0.68 0 0 Z " fill="#F7F0A3" transform="translate(62,45)"/>
<path d="M0 0 C0.99 0.33 1.98 0.66 3 1 C0.69 3.31 -1.62 5.62 -4 8 C-2.5 12 -2.5 12 0 13 C0.40729228 15.32156597 0.74438677 17.6568787 1 20 C-2.21524305 18.59155282 -4.32183868 16.89655214 -6.75 14.375 C-7.36359375 13.74335937 -7.9771875 13.11171875 -8.609375 12.4609375 C-9.06828125 11.97882812 -9.5271875 11.49671875 -10 11 C-9.278125 10.29875 -8.55625 9.5975 -7.8125 8.875 C-5.00176187 6.07229255 -2.50483774 3.07737208 0 0 Z " fill="#D3AE54" transform="translate(14,31)"/>
<path d="M0 0 C2.31 0.66 4.62 1.32 7 2 C6.814375 2.61875 6.62875 3.2375 6.4375 3.875 C5.76313824 6.04160178 5.76313824 6.04160178 7 8 C6.67 8.66 6.34 9.32 6 10 C5.34 10 4.68 10 4 10 C4 11.98 4 13.96 4 16 C3.01 16.33 2.02 16.66 1 17 C0.09586327 13.16275828 -0.10576898 9.62497726 -0.0625 5.6875 C-0.05347656 4.61886719 -0.04445312 3.55023438 -0.03515625 2.44921875 C-0.02355469 1.64097656 -0.01195312 0.83273438 0 0 Z " fill="#93731C" transform="translate(44,37)"/>
<path d="M0 0 C0.66 0.33 1.32 0.66 2 1 C1.319375 1.66 0.63875 2.32 -0.0625 3 C-3.06010213 5.97190839 -5.74787019 9.18536092 -8.44921875 12.42578125 C-8.96097656 12.94527344 -9.47273437 13.46476562 -10 14 C-10.66 14 -11.32 14 -12 14 C-12.33 14.99 -12.66 15.98 -13 17 C-14.32 16.67 -15.64 16.34 -17 16 C-6.02441009 2.84486032 -6.02441009 2.84486032 0 0 Z " fill="#EADE92" transform="translate(19,24)"/>
<path d="M0 0 C0.99 0 1.98 0 3 0 C3 0.99 3 1.98 3 3 C5.31 3 7.62 3 10 3 C10.33 2.01 10.66 1.02 11 0 C11.99 0.33 12.98 0.66 14 1 C14.08097324 3.27024968 14.13917704 5.54132075 14.1875 7.8125 C14.22230469 9.07707031 14.25710937 10.34164062 14.29296875 11.64453125 C14 15 14 15 11 18 C11 13.71 11 9.42 11 5 C9.02 5 7.04 5 5 5 C4.01 5 3.02 5 2 5 C1.34 3.35 0.68 1.7 0 0 Z " fill="#58430F" transform="translate(24,33)"/>
<path d="M0 0 C0 3.63 0 7.26 0 11 C-0.99 10.67 -1.98 10.34 -3 10 C-4.35439668 7.29120665 -4.06501451 4.99066732 -4 2 C-4.99 2 -5.98 2 -7 2 C-6.01 4.64 -5.02 7.28 -4 10 C-4.66 10 -5.32 10 -6 10 C-8.61896089 7.17152224 -9.4739075 4.78786597 -10 1 C-6.78548731 -0.60725635 -3.56387464 -0.05748185 0 0 Z " fill="#927426" transform="translate(36,37)"/>
<path d="M0 0 C2.64 0 5.28 0 8 0 C7.34 2.97 6.68 5.94 6 9 C4.68 9 3.36 9 2 9 C1.34 6.03 0.68 3.06 0 0 Z " fill="#4D3C11" transform="translate(36,20)"/>
<path d="M0 0 C0.042721 1.66611905 0.04063832 3.33382885 0 5 C-0.33 5.33 -0.66 5.66 -1 6 C-2.3921875 5.9071875 -2.3921875 5.9071875 -3.8125 5.8125 C-7.05814934 5.7072495 -7.05814934 5.7072495 -9.3125 7.75 C-10.95208905 9.93611873 -11.61794563 11.32561938 -12 14 C-13.32 13.67 -14.64 13.34 -16 13 C-9.93939394 5.62626263 -9.93939394 5.62626263 -6 3 C-5.29875 2.443125 -4.5975 1.88625 -3.875 1.3125 C-2 0 -2 0 0 0 Z " fill="#161108" transform="translate(56,65)"/>
<path d="M0 0 C0.66 0 1.32 0 2 0 C2 0.66 2 1.32 2 2 C3.32 2.33 4.64 2.66 6 3 C6 4.32 6 5.64 6 7 C5.34 7 4.68 7 4 7 C3.67 5.68 3.34 4.36 3 3 C-0.72614153 4.11854586 -0.72614153 4.11854586 -3 7 C-5.875 7.1875 -5.875 7.1875 -9 7 C-9.66 6.01 -10.32 5.02 -11 4 C-10.34 3.34 -9.68 2.68 -9 2 C-7.328451 2.30791692 -5.66194453 2.64386903 -4 3 C-1.76832815 2.63143136 -1.76832815 2.63143136 0 2 C0 1.34 0 0.68 0 0 Z " fill="#DED294" transform="translate(55,29)"/>
<path d="M0 0 C0.33 0.66 0.66 1.32 1 2 C3.02008024 2.72319347 3.02008024 2.72319347 5.375 3.3125 C8.7527584 4.36502885 9.77723106 4.72322647 12.0625 7.5625 C13 10 13 10 13 12 C10.04567948 10.61557626 7.48757231 9.01447893 4.875 7.0625 C4.19179688 6.55847656 3.50859375 6.05445313 2.8046875 5.53515625 C1 4 1 4 -1 1 C-0.67 0.67 -0.34 0.34 0 0 Z " fill="#C6973D" transform="translate(15,50)"/>
<path d="M0 0 C6.352638 2.44332231 10.39601323 7.11977403 15 12 C13.359375 12.83203125 13.359375 12.83203125 11 13 C8.85771037 11.28556989 7.10825073 9.67012184 5.25 7.6875 C4.74339844 7.17509766 4.23679687 6.66269531 3.71484375 6.13476562 C0 2.29475868 0 2.29475868 0 0 Z " fill="#F6E48F" transform="translate(60,25)"/>
<path d="M0 0 C0.33 0.99 0.66 1.98 1 3 C-0.65 3.66 -2.3 4.32 -4 5 C-4 5.99 -4 6.98 -4 8 C-3.34 8.33 -2.68 8.66 -2 9 C-2.66 9 -3.32 9 -4 9 C-4.33 9.66 -4.66 10.32 -5 11 C-5.495 9.8553125 -5.495 9.8553125 -6 8.6875 C-8.82650065 4.88938975 -11.52593414 4.3935615 -16 3 C-15.67 2.34 -15.34 1.68 -15 1 C-13.205625 1.556875 -13.205625 1.556875 -11.375 2.125 C-7.33859579 3.15023233 -4.84020006 2.77960491 -1 1 C-0.67 0.67 -0.34 0.34 0 0 Z " fill="#2E240F" transform="translate(32,49)"/>
<path d="M0 0 C1.13953125 -0.01417969 2.2790625 -0.02835938 3.453125 -0.04296875 C6.66527045 0.18157696 8.86296626 0.81453095 11.75 2.1875 C11.75 2.5175 11.75 2.8475 11.75 3.1875 C4.16 3.1875 -3.43 3.1875 -11.25 3.1875 C-9.93 2.5275 -8.61 1.8675 -7.25 1.1875 C-5.40174303 -0.66075697 -2.4758947 0.01387833 0 0 Z " fill="#F4E689" transform="translate(39.25,55.8125)"/>
<path d="M0 0 C0.99 0.33 1.98 0.66 3 1 C2.34 1 1.68 1 1 1 C0.67 3.31 0.34 5.62 0 8 C3.465 7.505 3.465 7.505 7 7 C7.33 7.99 7.66 8.98 8 10 C4.04 10 0.08 10 -4 10 C-2.8905928 6.51329166 -1.73662334 3.22515763 0 0 Z " fill="#3F3213" transform="translate(22,37)"/>
<path d="M0 0 C1.98 0.99 1.98 0.99 4 2 C5.99110401 2.38290462 7.99100513 2.72604615 10 3 C10.33 2.01 10.66 1.02 11 0 C11.66 0 12.32 0 13 0 C12.34 1.65 11.68 3.3 11 5 C6.69986566 5.19546065 4.99110319 4.9955516 1 3 C1 6.63 1 10.26 1 14 C0.67 14 0.34 14 0 14 C0 9.38 0 4.76 0 0 Z " fill="#201807" transform="translate(42,33)"/>
<path d="M0 0 C2.3125 0.0625 2.3125 0.0625 5 1 C6.04718798 3.31254012 7.04346365 5.6485148 8 8 C10.53099205 10.41144481 10.53099205 10.41144481 13 12 C12.67 12.99 12.34 13.98 12 15 C6.56321571 10.67528523 2.31431078 6.75007312 0 0 Z " fill="#DEC87B" transform="translate(42,8)"/>
<path d="M0 0 C1.3921875 0.3403125 1.3921875 0.3403125 2.8125 0.6875 C2.1525 2.6675 1.4925 4.6475 0.8125 6.6875 C-1.5625 6.375 -1.5625 6.375 -4.1875 5.6875 C-4.8475 4.6975 -5.5075 3.7075 -6.1875 2.6875 C-4.14987265 -0.14253799 -3.59070275 -0.35202968 0 0 Z " fill="#765F2E" transform="translate(19.1875,36.3125)"/>
<path d="M0 0 C0.33 0 0.66 0 1 0 C1.33 6.93 1.66 13.86 2 21 C1.01 21 0.02 21 -1 21 C-1.10808032 13.90272572 -0.93854006 7.03905044 0 0 Z " fill="#DAD392" transform="translate(41,34)"/>
<path d="M0 0 C0.33 0 0.66 0 1 0 C1 1.65 1 3.3 1 5 C3.97 5.495 3.97 5.495 7 6 C6.67 4.68 6.34 3.36 6 2 C7.5 3.375 7.5 3.375 9 5 C9 5.66 9 6.32 9 7 C5.04 7 1.08 7 -3 7 C-1.125 1.125 -1.125 1.125 0 0 Z " fill="#3F3211" transform="translate(53,40)"/>
<path d="M0 0 C-0.8125 2.9375 -0.8125 2.9375 -2 6 C-2.99 6.33 -3.98 6.66 -5 7 C-6.5625 4.625 -6.5625 4.625 -8 2 C-6.14210462 -1.71579076 -3.44525918 -1.06921837 0 0 Z " fill="#81652B" transform="translate(66,38)"/>
<path d="M0 0 C1.65 0.33 3.3 0.66 5 1 C5 1.66 5 2.32 5 3 C3 4.625 3 4.625 1 6 C1.2784375 7.175625 1.2784375 7.175625 1.5625 8.375 C2 11 2 11 1 13 C-1 12 -1 12 -2 11 C-2.34892324 6.92922882 -1.41404314 3.80024093 0 0 Z " fill="#DCCF92" transform="translate(44,18)"/>
<path d="M0 0 C3.85658398 2.15078722 7.54319097 4.23455278 11 7 C8.69 7 6.38 7 4 7 C4 6.01 4 5.02 4 4 C1.58380177 3.74969023 1.58380177 3.74969023 -1 4 C-1.99 5.485 -1.99 5.485 -3 7 C-3.66 7 -4.32 7 -5 7 C-4.60196439 4.11424181 -4.20990931 3.17810487 -1.9375 1.25 C-1.298125 0.8375 -0.65875 0.425 0 0 Z " fill="#D3C88E" transform="translate(23,29)"/>
<path d="M0 0 C2.97 0.33 5.94 0.66 9 1 C7.515 3.475 7.515 3.475 6 6 C4.68 5.67 3.36 5.34 2 5 C2 4.01 2 3.02 2 2 C1.34 2 0.68 2 0 2 C0 1.34 0 0.68 0 0 Z " fill="#AB8214" transform="translate(36,62)"/>
<path d="M0 0 C-3.07999946 3.67230705 -5.2482602 4.56802365 -10 5 C-9.875 3.125 -9.875 3.125 -9 1 C-5.3931275 -0.64661571 -3.8148779 -1.27162597 0 0 Z " fill="#BA8B34" transform="translate(63,55)"/>
<path d="M0 0 C0.66 0 1.32 0 2 0 C2 7.26 2 14.52 2 22 C1.01 21.67 0.02 21.34 -1 21 C-1 18 -1 18 0 15 C0.07029121 12.42734182 0.09370832 9.88358569 0.0625 7.3125 C0.05573242 6.2596582 0.05573242 6.2596582 0.04882812 5.18554688 C0.03706927 3.45699462 0.01913454 1.72848635 0 0 Z " fill="#F4E999" transform="translate(37,33)"/>
<path d="M0 0 C0 0.99 0 1.98 0 3 C0.66 3 1.32 3 2 3 C2.33 2.01 2.66 1.02 3 0 C3.66 0 4.32 0 5 0 C4.34 1.65 3.68 3.3 3 5 C1.0625 4.625 1.0625 4.625 -1 4 C-1.33 3.34 -1.66 2.68 -2 2 C-3.65 3.98 -5.3 5.96 -7 8 C-7.66 7.34 -8.32 6.68 -9 6 C-8.07213211 4.99105628 -7.13231567 3.99309093 -6.1875 3 C-5.66542969 2.443125 -5.14335937 1.88625 -4.60546875 1.3125 C-3 0 -3 0 0 0 Z " fill="#29200B" transform="translate(18,33)"/>
<path d="M0 0 C0.66 0.33 1.32 0.66 2 1 C2 3 2 5 2 7 C-1.23253796 9.15502531 -2.25150923 9.46856135 -6 9 C-7.8125 7.5 -7.8125 7.5 -9 6 C-6.61435923 6.57584432 -4.33317216 7.22227595 -2 8 C-2.33 6.35 -2.66 4.7 -3 3 C-2.01 3 -1.02 3 0 3 C0 2.01 0 1.02 0 0 Z " fill="#51421A" transform="translate(34,24)"/>
<path d="M0 0 C1.65 1.65 3.3 3.3 5 5 C4.1875 6.9375 4.1875 6.9375 3 9 C2.01 9.33 1.02 9.66 0 10 C-0.99 8.02 -1.98 6.04 -3 4 C-2.01 4.33 -1.02 4.66 0 5 C0 5.66 0 6.32 0 7 C0.66 7 1.32 7 2 7 C1.42655063 4.13275314 1.1385485 3.1385485 -1 1 C-0.67 0.67 -0.34 0.34 0 0 Z " fill="#2E210D" transform="translate(59,29)"/>
<path d="M0 0 C0.99 0 1.98 0 3 0 C3 0.99 3 1.98 3 3 C5.31 3 7.62 3 10 3 C10 2.34 10 1.68 10 1 C10.66 1 11.32 1 12 1 C12.33 1.99 12.66 2.98 13 4 C10.2761601 5.36191995 8.01903173 5.06161289 5 5 C4.01 5 3.02 5 2 5 C1.34 3.35 0.68 1.7 0 0 Z " fill="#291E06" transform="translate(24,33)"/>
<path d="M0 0 C1.32 0 2.64 0 4 0 C4 0.99 4 1.98 4 3 C4.66 3 5.32 3 6 3 C6 3.99 6 4.98 6 6 C7.32 6.66 8.64 7.32 10 8 C6 8 6 8 3.3125 5.6875 C1 3 1 3 0 0 Z " fill="#5D4714" transform="translate(32,61)"/>
<path d="M0 0 C0 0.66 0 1.32 0 2 C1.65 1.67 3.3 1.34 5 1 C3.35 2.65 1.7 4.3 0 6 C0 5.34 0 4.68 0 4 C-4.455 3.01 -4.455 3.01 -9 2 C-9 1.67 -9 1.34 -9 1 C-2.25 0 -2.25 0 0 0 Z " fill="#86682D" transform="translate(53,58)"/>
<path d="M0 0 C0.99 0.66 1.98 1.32 3 2 C2.01 2.66 1.02 3.32 0 4 C-0.33 4.99 -0.66 5.98 -1 7 C-4.5625 8.1875 -4.5625 8.1875 -8 9 C-7.04270084 7.87411986 -6.08412105 6.7493285 -5.125 5.625 C-4.59132812 4.99851562 -4.05765625 4.37203125 -3.5078125 3.7265625 C-2.38567993 2.44163349 -1.20628025 1.20628025 0 0 Z " fill="#CE9A37" transform="translate(49,61)"/>
<path d="M0 0 C-3.60957611 3.2910841 -6.12637153 4.54663921 -11 5 C-11 4.34 -11 3.68 -11 3 C-11.66 2.67 -12.32 2.34 -13 2 C-11.21089097 1.47044766 -9.41860852 0.9516063 -7.625 0.4375 C-6.62726562 0.14746094 -5.62953125 -0.14257812 -4.6015625 -0.44140625 C-2 -1 -2 -1 0 0 Z " fill="#2E2713" transform="translate(65,51)"/>
<path d="M0 0 C1.32 0.33 2.64 0.66 4 1 C4 1.99 4 2.98 4 4 C4.31421071 6.00309329 4.6451046 8.00371336 5 10 C4.01 9.67 3.02 9.34 2 9 C2 8.34 2 7.68 2 7 C1.34 7 0.68 7 0 7 C0 4.69 0 2.38 0 0 Z " fill="#66572D" transform="translate(54,32)"/>
<path d="M0 0 C2.01920337 1.30406884 4.01924973 2.63823419 6 4 C6 4.33 6 4.66 6 5 C2.7 5 -0.6 5 -4 5 C-2.68 3.35 -1.36 1.7 0 0 Z " fill="#9E7E1C" transform="translate(39,11)"/>
<path d="M0 0 C0.33 0.99 0.66 1.98 1 3 C-1.31 5.31 -3.62 7.62 -6 10 C-6.33 8.68 -6.66 7.36 -7 6 C-6.01 6 -5.02 6 -4 6 C-3.896875 5.38125 -3.79375 4.7625 -3.6875 4.125 C-3 2 -3 2 0 0 Z " fill="#AA7C23" transform="translate(52,62)"/>
<path d="M0 0 C0 3 0 3 -1.875 5.1875 C-4 7 -4 7 -6 7 C-6.33 7.99 -6.66 8.98 -7 10 C-8.32 9.67 -9.64 9.34 -11 9 C-9.60334979 6.20669958 -7.37665906 5.47460055 -4.72265625 4.01953125 C-2.84186334 2.90640891 -1.41531706 1.6650789 0 0 Z " fill="#E3C96F" transform="translate(13,31)"/>
<path d="M0 0 C0 3 0 3 -1.5 4.6875 C-1.995 5.120625 -2.49 5.55375 -3 6 C-2.01 6.66 -1.02 7.32 0 8 C-2.97 8.66 -5.94 9.32 -9 10 C-2.97321429 2.90178571 -2.97321429 2.90178571 0 0 Z " fill="#382D0E" transform="translate(39,9)"/>
<path d="M0 0 C0.66 0 1.32 0 2 0 C2.042721 1.66611905 2.04063832 3.33382885 2 5 C1 6 1 6 -1.5625 6.0625 C-2.7690625 6.0315625 -2.7690625 6.0315625 -4 6 C-2.84826645 3.53199953 -1.95216435 1.95216435 0 0 Z " fill="#000000" transform="translate(54,65)"/>
<path d="M0 0 C0.33 0.66 0.66 1.32 1 2 C-3.29 2.66 -7.58 3.32 -12 4 C-12.33 3.34 -12.66 2.68 -13 2 C-8.49646738 0.24252386 -4.82360189 -0.19294408 0 0 Z " fill="#201809" transform="translate(43,58)"/>
<path d="M0 0 C0.99 0 1.98 0 3 0 C3 1.98 3 3.96 3 6 C3.66 6.33 4.32 6.66 5 7 C5 7.99 5 8.98 5 10 C4.34 10 3.68 10 3 10 C0.96564469 6.27034861 0 4.33094958 0 0 Z " fill="#6A4F13" transform="translate(29,39)"/>
<path d="M0 0 C0.33 0.66 0.66 1.32 1 2 C2.88764903 2.68472665 2.88764903 2.68472665 5.0625 3.125 C5.79597656 3.29257812 6.52945312 3.46015625 7.28515625 3.6328125 C7.85105469 3.75398438 8.41695312 3.87515625 9 4 C8.34 4.66 7.68 5.32 7 6 C6.34 5.67 5.68 5.34 5 5 C4.67 5.66 4.34 6.32 4 7 C2.35 5.02 0.7 3.04 -1 1 C-0.67 0.67 -0.34 0.34 0 0 Z " fill="#A58133" transform="translate(15,50)"/>
<path d="M0 0 C0.66 0 1.32 0 2 0 C2.33 0.66 2.66 1.32 3 2 C5.31 1.34 7.62 0.68 10 0 C10 0.66 10 1.32 10 2 C7.42786866 3.61949011 6.32330841 4.04408751 3.25 3.625 C2.5075 3.41875 1.765 3.2125 1 3 C0.67 2.01 0.34 1.02 0 0 Z " fill="#40310E" transform="translate(45,29)"/>
<path d="M0 0 C0.33 0.66 0.66 1.32 1 2 C1.66 2 2.32 2 3 2 C3 3.65 3 5.3 3 7 C1.68 6.34 0.36 5.68 -1 5 C-0.67 3.35 -0.34 1.7 0 0 Z " fill="#EADF8F" transform="translate(17,45)"/>
<path d="M0 0 C0.33 0.99 0.66 1.98 1 3 C-1.97 5.475 -1.97 5.475 -5 8 C-5.66 7.67 -6.32 7.34 -7 7 C-4.69 4.69 -2.38 2.38 0 0 Z " fill="#DCD08C" transform="translate(11,30)"/>
<path d="M0 0 C2.5654594 2.5654594 2.54046087 4.47686668 3 8 C2.01 8 1.02 8 0 8 C0 7.34 0 6.68 0 6 C-0.66 5.67 -1.32 5.34 -2 5 C-1.34 3.35 -0.68 1.7 0 0 Z " fill="#EEE9AE" transform="translate(36,23)"/>
<path d="M0 0 C1.32 0.33 2.64 0.66 4 1 C0.535 3.97 0.535 3.97 -3 7 C-1.125 1.125 -1.125 1.125 0 0 Z " fill="#B59242" transform="translate(69,44)"/>
<path d="M0 0 C0 3 0 3 -2 6 C-1.01 7.485 -1.01 7.485 0 9 C-1.32 8.67 -2.64 8.34 -4 8 C-3.50168276 4.31245243 -2.89932357 2.39509338 0 0 Z " fill="#6F521B" transform="translate(16,34)"/>
<path d="M0 0 C0.33 0.99 0.66 1.98 1 3 C-0.28965176 4.37562854 -1.62689293 5.70766393 -3 7 C-3.66 7 -4.32 7 -5 7 C-4.60196439 4.11424181 -4.20990931 3.17810487 -1.9375 1.25 C-1.298125 0.8375 -0.65875 0.425 0 0 Z " fill="#211908" transform="translate(49,20)"/>
<path d="M0 0 C0.99 0.33 1.98 0.66 3 1 C-0.465 3.97 -0.465 3.97 -4 7 C-3.04065919 3.16263678 -2.76390737 2.40339772 0 0 Z " fill="#D7BB65" transform="translate(27,18)"/>
<path d="M0 0 C3.37503669 1.1858237 5.64722731 2.27573689 8 5 C6.68 5 5.36 5 4 5 C1.75 2.5 1.75 2.5 0 0 Z " fill="#B07C1C" transform="translate(34,71)"/>
<path d="M0 0 C-1.25 1.5 -1.25 1.5 -3 3 C-4.32 3 -5.64 3 -7 3 C-6.67 2.01 -6.34 1.02 -6 0 C-3 -1 -3 -1 0 0 Z " fill="#CBAC55" transform="translate(77,41)"/>
<path d="M0 0 C0.99 0.99 1.98 1.98 3 3 C2.85546875 5.26171875 2.85546875 5.26171875 2.1875 7.6875 C1.86845703 8.89986328 1.86845703 8.89986328 1.54296875 10.13671875 C1.27419922 11.05904297 1.27419922 11.05904297 1 12 C0.67 12 0.34 12 0 12 C0 8.04 0 4.08 0 0 Z " fill="#A67809" transform="translate(44,37)"/>
<path d="M0 0 C2 2 2 2 2 5 C1.34 5.66 0.68 6.32 0 7 C-0.99 5.68 -1.98 4.36 -3 3 C-2.01 2.01 -1.02 1.02 0 0 Z " fill="#8F6A26" transform="translate(16,36)"/>
</svg>
